<svg width="32" height="32" viewBox="0 0 32 32" fill="none" xmlns="http://www.w3.org/2000/svg">
<path d="M0.395045 29.1428L10.263 6.71423C13.463 16.6571 22.1677 20.9523 26.1201 21.8571C19.7392 24.7142 6.29155 30.6857 3.54869 31.7142C0.805832 32.7428 -0.0441546 30.2857 0.395045 29.1428Z" fill="#0F2B94"/>
<circle cx="25.2524" cy="2.71426" r="1.71429" fill="#4F71ED"/>
<circle cx="22.9666" cy="7.57145" r="1.14286" fill="#4F71ED"/>
<circle cx="29.2525" cy="16.7142" r="1.14286" fill="#4F71ED"/>
<circle cx="21.2525" cy="27.8571" r="1.14286" fill="#4F71ED"/>
<circle cx="26.6809" cy="10.4286" r="1.14286" fill="#4F71ED"/>
<circle cx="29.5381" cy="6.71421" r="1.14286" fill="#4F71ED"/>
<circle cx="1.53812" cy="15.5714" r="1.14286" fill="#4F71ED"/>
<path d="M16.9667 0.285706C18.4429 0.952372 20.5096 2.42856 16.9667 2.99999C12.5382 3.71428 16.1096 5.99999 17.9667 6.28571C19.8239 6.57142 18.2525 8.28571 15.9668 8.14285C13.681 7.99999 14.1096 9.71428 15.5382 10.7143" stroke="#1439C3" stroke-width="2" stroke-linecap="round"/>
<path d="M20.5381 16.4285C22.4905 15.1904 27.3952 12.9143 31.3952 13.7143" stroke="#1439C3" stroke-width="2" stroke-linecap="round"/>
<path d="M28.1095 20.5714C29.3 20.8571 31.2524 21.7142 29.5381 22.8571C27.3952 24.2856 25.681 25.4285 29.2524 25.8571C32.8238 26.2856 31.8238 26.7142 30.1095 27.9999C28.3952 29.2856 29.6809 30.5713 30.8238 30.8571" stroke="#1439C3" stroke-width="2" stroke-linecap="round"/>
<path d="M4.82387 12.4286C5.72863 9.99999 7.22387 4.54285 5.96673 2.14285C4.3953 -0.857152 2.25244 1.57142 2.25244 3.14285" stroke="#1439C3" stroke-width="2" stroke-linecap="round"/>
</svg>
