<svg width="20" height="22" viewBox="0 0 20 22" fill="none" xmlns="http://www.w3.org/2000/svg">
<path d="M17.5833 2.24998H13.055C12.6 0.993313 11.4083 0.083313 10 0.083313C8.59167 0.083313 7.4 0.993313 6.945 2.24998H2.41667C1.225 2.24998 0.25 3.22498 0.25 4.41665V19.5833C0.25 20.775 1.225 21.75 2.41667 21.75H17.5833C18.775 21.75 19.75 20.775 19.75 19.5833V4.41665C19.75 3.22498 18.775 2.24998 17.5833 2.24998ZM10 2.24998C10.5958 2.24998 11.0833 2.73748 11.0833 3.33331C11.0833 3.92915 10.5958 4.41665 10 4.41665C9.40417 4.41665 8.91667 3.92915 8.91667 3.33331C8.91667 2.73748 9.40417 2.24998 10 2.24998ZM10 6.58331C11.7983 6.58331 13.25 8.03498 13.25 9.83331C13.25 11.6316 11.7983 13.0833 10 13.0833C8.20167 13.0833 6.75 11.6316 6.75 9.83331C6.75 8.03498 8.20167 6.58331 10 6.58331ZM16.5 19.5833H3.5V18.0666C3.5 15.9 7.83333 14.7083 10 14.7083C12.1667 14.7083 16.5 15.9 16.5 18.0666V19.5833Z" fill="#1439C3"/>
</svg>
