<svg width="20" height="21" viewBox="0 0 20 21" fill="none" xmlns="http://www.w3.org/2000/svg">
<g clip-path="url(#clip0_31_1393)">
<path d="M10 0.913452C5.90625 0.913452 2.4375 3.53845 1.15625 7.16345H18.8438C17.5625 3.53845 14.0938 0.913452 10 0.913452Z" fill="#ED4C5C"/>
<path d="M10 19.6635C14.0938 19.6635 17.5625 17.0697 18.8438 13.4135H1.15625C2.4375 17.0697 5.90625 19.6635 10 19.6635Z" fill="#F9F9F9"/>
<path d="M1.15625 7.16345C0.8125 8.1322 0.625 9.1947 0.625 10.2885C0.625 11.3822 0.8125 12.4447 1.15625 13.4135H18.8438C19.1875 12.4447 19.375 11.3822 19.375 10.2885C19.375 9.1947 19.1875 8.1322 18.8438 7.16345H1.15625Z" fill="#2872A0"/>
<path d="M4.84375 7.0697V12.1322C4.84375 13.8822 6.3125 15.2885 8.125 15.2885C9.9375 15.2885 11.4062 13.8822 11.4062 12.1322V7.0697H4.84375Z" fill="#ED4C5C"/>
<path d="M9.31253 14.7572L9.25004 14.476L9.00003 14.0385L9.09379 13.976L9.03128 13.6947L8.81254 13.351L8.87503 13.3197L8.81254 13.0385L8.65629 12.726L8.90629 12.2572L9.06254 12.7572L9.18753 12.5697L9.37503 12.851L9.43754 12.6635L9.62503 12.7572L9.59379 12.3822L10.0313 12.5072L9.71879 12.101H9.75004L9.50003 11.601L9.56254 11.4135L9.71879 11.726L9.78128 11.601L10.0313 12.2885V12.2572L10.1563 12.5072L10.2188 12.3822L10.4688 12.8822L10.5625 12.601L10.9375 12.8822C10.9375 12.8822 10.9063 11.9447 10.9063 11.6635C10.9688 10.851 11.25 9.1947 11.0313 8.4447C10.9375 8.0697 10.1875 7.16345 10.1875 7.16345C10.1875 7.16345 10.1563 8.2572 9.96878 8.60095C9.90628 8.72595 9.34378 9.0697 9.34378 9.0697L9.12504 9.03845L9.21878 9.0072L8.81254 8.60095L8.96879 7.78845L9.37503 7.1947L8.75004 7.22595L8.28129 7.35095L8.40628 7.53845L8.12504 8.53845L7.84379 7.5697L7.96879 7.3822L7.50004 7.22595L6.87504 7.1947L7.28128 7.78845L7.43753 8.60095L7.03129 9.0072L7.12503 9.03845L6.87504 9.10095C6.87504 9.10095 6.31253 8.7572 6.25003 8.6322C6.06253 8.3197 6.03128 7.1947 6.03128 7.1947C6.03128 7.1947 5.28129 8.10095 5.18754 8.47595C4.96879 9.2572 5.28128 10.9135 5.31253 11.6947C5.34378 12.0072 5.28128 12.9135 5.28128 12.9135L5.65629 12.6322L5.75003 12.9135L6.00004 12.4135L6.06253 12.5385L6.18753 12.2885V12.3197L6.43754 11.6322L6.50003 11.7572L6.65628 11.4447L6.71879 11.6322L6.46879 12.1322H6.50003L6.18753 12.5385L6.62504 12.4135V12.7885L6.81253 12.6947L6.87504 12.8822L7.06254 12.601L7.18754 12.7885L7.34379 12.2885L7.59378 12.7572L7.43753 13.0697L7.37504 13.351L7.43753 13.3822L7.21879 13.726L7.15628 14.0072L7.25004 14.0697L7.03129 14.5385L6.96878 14.8197L9.31253 14.7572Z" fill="#F2F3F5"/>
<path d="M6.25 13.3197L6.3125 13.1947L6.59375 13.0697L6.78125 13.0072H6.90625L6.9375 12.976L6.75 12.8822L6.71875 12.851L6.5625 12.9135L6.4375 13.0072L6.6875 12.6947L6.90625 12.1947L6.5625 12.4135L6.25 12.976L6.125 13.0385H5.8125L5.65625 13.0072L5.46875 13.101L5.5 13.1322H5.625L5.75 13.1947L6.03125 13.1635L5.71875 13.2572L5.65625 13.3822V13.5697H5.6875L5.71875 13.476H5.875L6.15625 13.226L5.9375 13.5697L5.90625 13.726L6 13.9447L6.0625 13.9135V13.7572L6.1875 13.6322L6.25 13.3197ZM9.96875 13.3197L9.9375 13.1947L9.65625 13.0697L9.46875 13.0072H9.34375L9.3125 12.976L9.5 12.8822L9.53125 12.851L9.6875 12.9135L9.8125 13.0072L9.5625 12.6947L9.34375 12.1947L9.6875 12.4135L10 12.976L10.125 13.0385H10.4375L10.5938 13.0072L10.7812 13.101L10.75 13.1322H10.625L10.5 13.1947L10.2188 13.1635L10.5312 13.2572L10.5938 13.3822V13.5697H10.5625L10.5312 13.476H10.375L10.0938 13.226L10.3125 13.5697L10.3437 13.726L10.25 13.9447L10.1875 13.9135V13.7572L10.0625 13.6322L9.96875 13.3197ZM6.6875 7.22597C6.375 7.25722 6.40625 7.47597 6.6875 7.75722C6.75 7.81972 6.75 7.81972 6.78125 7.75722C6.8125 7.66347 6.90625 7.60097 6.96875 7.66347C7 7.72597 7 7.75722 7.125 7.72597C7.15625 7.75722 7.21875 7.78847 7.25 7.81972C7.21875 7.81972 7.09375 7.85097 6.90625 7.88222C6.75 7.91347 6.65625 7.85097 6.53125 7.72597C6.5625 7.88222 6.9375 7.97597 6.90625 7.97597C6.9375 8.03847 6.9375 8.06972 6.96875 8.06972C7.09375 8.10097 7.21875 8.00722 7.34375 8.03847C7.625 8.10097 7.15625 7.31972 7.1875 7.28847C7.21875 7.22597 6.78125 7.10097 6.6875 7.22597ZM9.25 8.10097C9.28125 8.10097 9.28125 8.10097 9.3125 8.00722C9.28125 8.00722 9.65625 7.91347 9.6875 7.75722C9.59375 7.88222 9.46875 7.94472 9.3125 7.91347C9.125 7.88222 9 7.81972 8.96875 7.85097C9 7.81972 9.03125 7.78847 9.09375 7.75722C9.21875 7.78847 9.21875 7.75722 9.25 7.69472C9.3125 7.63222 9.40625 7.66347 9.4375 7.78847C9.4375 7.85097 9.46875 7.85097 9.53125 7.78847C9.8125 7.50722 9.84375 7.28847 9.53125 7.25722C9.46875 7.13222 9.03125 7.25722 9.0625 7.35097C9.0625 7.38222 8.625 8.16347 8.90625 8.10097C9 8.03847 9.125 8.10097 9.25 8.10097Z" fill="#FFCE31"/>
<path d="M6.75 9.22595V11.5072C6.75 12.1947 7.375 12.7572 8.125 12.7572C8.875 12.7572 9.5 12.1947 9.5 11.5072V9.22595H6.75Z" fill="#ED4C5C"/>
<path d="M7.75 8.8197H8.53125V13.5072H7.75V8.8197Z" fill="#F2F3F5"/>
<path d="M5.96875 10.3822H10.2813V11.1635H5.96875V10.3822ZM7.5 9.78845L7.1875 10.101L7.28125 9.78845L7.1875 9.5072L7.5 9.78845ZM7.5 11.7572L7.1875 12.0697L7.28125 11.7572L7.1875 11.4447L7.5 11.7572ZM8.75 9.78845L9.0625 10.101L9 9.78845L9.0625 9.5072L8.75 9.78845ZM8.75 11.7572L9.0625 12.0697L9 11.7572L9.0625 11.4447L8.75 11.7572Z" fill="#F2F3F5"/>
<path d="M8.4375 3.9447H7.8125V4.5697H8.4375V3.9447Z" fill="#428BC1"/>
<path d="M7.84376 3.53845L7.90626 3.5697L7.96876 3.53845H8.06251V3.91345H7.81251V4.03845H8.43751V3.91345H8.18751V3.53845H8.28126L8.34376 3.5697L8.40626 3.53845L8.46876 3.47595L8.40626 3.41345L8.34376 3.35095L8.28126 3.41345H8.18751V3.28845L8.25001 3.22595L8.18751 3.16345L8.12501 3.10095L8.06251 3.16345L8.00001 3.22595L8.06251 3.28845V3.41345H7.96876L7.90626 3.35095L7.84376 3.41345L7.78126 3.47595L7.84376 3.53845ZM10.1563 4.78845C9.75001 4.5697 9.50001 4.5072 9.40626 4.66345C9.40626 4.66345 9.40626 4.6947 9.37501 4.6947C8.87501 4.4447 8.50001 4.41345 8.12501 4.5697C7.75001 4.41345 7.40626 4.4447 6.87501 4.6947C6.87501 4.66345 6.87501 4.66345 6.84376 4.66345C6.75001 4.5072 6.50001 4.53845 6.09376 4.78845C5.68751 5.0072 5.31251 5.3197 5.40626 5.4447C5.43751 5.66345 5.56251 5.85095 5.78126 6.0697C6.03126 6.1947 6.53126 6.22595 7.06251 6.1947C7.75001 6.16345 8.46876 6.16345 9.15626 6.1947C9.68751 6.22595 10.1875 6.1947 10.4375 6.0697C10.6563 5.85095 10.7813 5.66345 10.8125 5.4447C10.9375 5.35095 10.5313 5.03845 10.1563 4.78845Z" fill="#FFCE31"/>
<path d="M8.56255 5.66344C8.81255 5.44469 8.9688 5.22594 9.0938 5.00719C8.87505 4.94469 8.6563 4.91344 8.4688 4.94469C8.50005 5.19469 8.5313 5.44469 8.56255 5.66344ZM7.68755 5.66344C7.7188 5.41344 7.75005 5.16344 7.81255 4.91344C7.62505 4.88219 7.4063 4.91344 7.18755 4.97594C7.25005 5.22594 7.43755 5.44469 7.68755 5.66344ZM10.1875 5.22594C10.1563 5.19469 10.0938 5.13219 10 5.10094C9.9063 5.06969 9.81255 5.03844 9.75005 5.03844C9.7188 5.28844 9.62505 5.53844 9.4063 5.78844C9.50005 5.78844 9.5938 5.75719 9.6563 5.72594C9.9063 5.60094 10.0625 5.44469 10.1875 5.31969C10.2188 5.28844 10.2188 5.25719 10.1875 5.22594ZM6.50005 5.00719C6.43755 5.00719 6.3438 5.03844 6.25005 5.06969C6.0938 5.13219 6.00005 5.25719 6.06255 5.28844C6.18755 5.41344 6.3438 5.53844 6.5938 5.69469C6.6563 5.72594 6.75005 5.72594 6.8438 5.75719C6.62505 5.50719 6.5313 5.28844 6.50005 5.00719Z" fill="#ED4C5C"/>
<path d="M5.8125 6.0697H10.4375V6.6947H5.8125V6.0697Z" fill="#FFCE31"/>
<path d="M5.8125 6.1947L5.6875 6.41345L5.84375 6.5697L6.0625 6.35095L5.8125 6.1947ZM10.4375 6.1947L10.1875 6.35095L10.4062 6.5697L10.5625 6.41345L10.4375 6.1947ZM8.125 6.03845L7.875 6.2572L8.125 6.4447L8.375 6.2572L8.125 6.03845Z" fill="#428BC1"/>
<path d="M6.96875 6.47595L7.1875 6.2572L6.9375 6.10095L6.71875 6.28845L6.96875 6.47595ZM9.28125 6.47595L9.53125 6.28845L9.3125 6.10095L9.0625 6.2572L9.28125 6.47595Z" fill="#ED4C5C"/>
</g>
<defs>
<clipPath id="clip0_31_1393">
<rect width="20" height="20" fill="white" transform="translate(0 0.288452)"/>
</clipPath>
</defs>
</svg>
