<svg width="20" height="21" viewBox="0 0 20 21" fill="none" xmlns="http://www.w3.org/2000/svg">
<g clip-path="url(#clip0_31_1374)">
<path d="M19.2188 8.66345C18.4688 4.2572 14.625 0.913452 10 0.913452C5.375 0.913452 1.53125 4.2572 0.78125 8.66345L10 4.03845L19.2188 8.66345ZM0.78125 11.9135C1.53125 16.3197 5.375 19.6635 10 19.6635C14.625 19.6635 18.4688 16.3197 19.2188 11.9135L10 16.5385L0.78125 11.9135Z" fill="#699635"/>
<path d="M10 4.03845L0.78125 8.66345C0.6875 9.1947 0.625 9.72595 0.625 10.2885C0.625 10.851 0.6875 11.3822 0.78125 11.9135L10 16.5385L19.2188 11.9135C19.3125 11.3822 19.375 10.851 19.375 10.2885C19.375 9.72595 19.3125 9.1947 19.2188 8.66345L10 4.03845Z" fill="#FFE62E"/>
<path d="M8.125 9.16345C7.125 9.16345 6.1875 9.3822 5.34375 9.7572C5.3125 9.9447 5.3125 10.101 5.3125 10.2885C5.3125 12.8822 7.40625 14.976 10 14.976C11.75 14.976 13.2813 14.0072 14.0938 12.601C12.9375 10.5697 10.6875 9.16345 8.125 9.16345Z" fill="#428BC1"/>
<path d="M14.625 11.0385C14.6562 10.7885 14.6875 10.5385 14.6875 10.2885C14.6875 7.6947 12.5938 5.60095 10 5.60095C8.15625 5.60095 6.5625 6.66345 5.78125 8.22595C6.53125 8.0072 7.3125 7.8822 8.125 7.8822C10.7812 7.8822 13.125 9.1322 14.625 11.0385Z" fill="#428BC1"/>
<path d="M8.125 7.8822C7.3125 7.8822 6.53125 8.0072 5.78125 8.22595C5.5625 8.6947 5.40625 9.1947 5.34375 9.7572C6.1875 9.3822 7.125 9.16345 8.125 9.16345C10.6875 9.16345 12.9375 10.5385 14.0937 12.5697C14.375 12.101 14.5312 11.5697 14.625 11.0385C13.125 9.1322 10.7812 7.8822 8.125 7.8822Z" fill="#F2F3F5"/>
<path d="M6.875 10.601C7.04759 10.601 7.1875 10.461 7.1875 10.2885C7.1875 10.1159 7.04759 9.97595 6.875 9.97595C6.70241 9.97595 6.5625 10.1159 6.5625 10.2885C6.5625 10.461 6.70241 10.601 6.875 10.601Z" fill="#F2F3F5"/>
<path d="M8.125 12.476C8.29759 12.476 8.4375 12.336 8.4375 12.1635C8.4375 11.9909 8.29759 11.851 8.125 11.851C7.95241 11.851 7.8125 11.9909 7.8125 12.1635C7.8125 12.336 7.95241 12.476 8.125 12.476Z" fill="#F2F3F5"/>
<path d="M10 12.476C10.1726 12.476 10.3125 12.336 10.3125 12.1635C10.3125 11.9909 10.1726 11.851 10 11.851C9.82741 11.851 9.6875 11.9909 9.6875 12.1635C9.6875 12.336 9.82741 12.476 10 12.476Z" fill="#F2F3F5"/>
<path d="M10 13.726C10.1726 13.726 10.3125 13.586 10.3125 13.4135C10.3125 13.2409 10.1726 13.101 10 13.101C9.82741 13.101 9.6875 13.2409 9.6875 13.4135C9.6875 13.586 9.82741 13.726 10 13.726Z" fill="#F2F3F5"/>
<path d="M12.5 12.476C12.6726 12.476 12.8125 12.336 12.8125 12.1635C12.8125 11.9909 12.6726 11.851 12.5 11.851C12.3274 11.851 12.1875 11.9909 12.1875 12.1635C12.1875 12.336 12.3274 12.476 12.5 12.476Z" fill="#F2F3F5"/>
<path d="M12.5 13.726C12.6726 13.726 12.8125 13.586 12.8125 13.4135C12.8125 13.2409 12.6726 13.101 12.5 13.101C12.3274 13.101 12.1875 13.2409 12.1875 13.4135C12.1875 13.586 12.3274 13.726 12.5 13.726Z" fill="#F2F3F5"/>
<path d="M11.25 13.101C11.4226 13.101 11.5625 12.961 11.5625 12.7885C11.5625 12.6159 11.4226 12.476 11.25 12.476C11.0774 12.476 10.9375 12.6159 10.9375 12.7885C10.9375 12.961 11.0774 13.101 11.25 13.101Z" fill="#F2F3F5"/>
<path d="M6.875 11.851C7.04759 11.851 7.1875 11.711 7.1875 11.5385C7.1875 11.3659 7.04759 11.226 6.875 11.226C6.70241 11.226 6.5625 11.3659 6.5625 11.5385C6.5625 11.711 6.70241 11.851 6.875 11.851Z" fill="#F2F3F5"/>
</g>
<defs>
<clipPath id="clip0_31_1374">
<rect width="20" height="20" fill="white" transform="translate(0 0.288452)"/>
</clipPath>
</defs>
</svg>
