<svg width="20" height="21" viewBox="0 0 20 21" fill="none" xmlns="http://www.w3.org/2000/svg">
<g clip-path="url(#clip0_31_1477)">
<path d="M19.375 10.2885C19.375 6.1947 16.7812 2.72595 13.125 1.4447V19.1322C16.7812 17.851 19.375 14.3822 19.375 10.2885Z" fill="#FFCE31"/>
<path d="M0.625 10.2885C0.625 14.3822 3.25 17.851 6.875 19.1322V1.4447C3.25 2.72595 0.625 6.1947 0.625 10.2885Z" fill="#83BF4F"/>
<path d="M13.125 1.4447C12.1562 1.10095 11.0938 0.913452 10 0.913452C8.90625 0.913452 7.84375 1.10095 6.875 1.4447V19.1322C7.84375 19.476 8.90625 19.6635 10 19.6635C11.0938 19.6635 12.1562 19.476 13.125 19.1322V1.4447Z" fill="#C94747"/>
<path d="M10 11.601L11.6562 12.7885L11.0312 10.8822L12.6562 9.6947H10.625L10 7.78845L9.375 9.6947H7.34375L8.96875 10.8822L8.34375 12.7885L10 11.601Z" fill="#FFCE31"/>
</g>
<defs>
<clipPath id="clip0_31_1477">
<rect width="20" height="20" fill="white" transform="translate(0 0.288452)"/>
</clipPath>
</defs>
</svg>
