<svg width="21" height="17" viewBox="0 0 21 17" fill="none" xmlns="http://www.w3.org/2000/svg">
<path d="M0.199976 8.20004C-2.42889e-05 10.6 0.699975 12.6 2.19998 14.4C3.69998 16.2 5.69998 17 8.09998 17H18.1C18.6 17 19.1 16.8 19.5 16.4C19.9 16 20.1 15.5 20.1 15V14.2C20.1 13.6 20 12.9 19.9 12H11.7C10.7 12 9.89997 11.6 9.19998 10.9C8.49998 10.2 8.09998 9.30004 8.09998 8.40004C8.09998 6.80004 8.79998 5.70004 10.3 5.10004L15.1 3.00004C13.4 1.80004 11.4 1.10004 9.09998 1.00004C6.89998 0.800044 4.89998 1.50004 3.09998 2.90004C1.29998 4.30004 0.399976 6.00004 0.199976 8.20004ZM10.1 8.40004C10.1 8.80004 10.3 9.20004 10.6 9.50004C10.9 9.80004 11.3 10 11.7 10H19.5C18.9 7.80004 18 6.00004 16.7 4.60004L11.1 6.90004C10.4 7.10004 10.1 7.60004 10.1 8.40004Z" fill="#616FA5"/>
</svg>
