<svg width="24" height="25" viewBox="0 0 24 25" fill="none" xmlns="http://www.w3.org/2000/svg">
<path fill-rule="evenodd" clip-rule="evenodd" d="M7.465 1.85445C8.638 1.80045 9.012 1.78845 12 1.78845C14.988 1.78845 15.362 1.80145 16.534 1.85445C17.706 1.90745 18.506 2.09445 19.206 2.36545C19.939 2.64245 20.604 3.07545 21.154 3.63545C21.714 4.18445 22.146 4.84845 22.422 5.58245C22.694 6.28245 22.88 7.08245 22.934 8.25245C22.988 9.42745 23 9.80145 23 12.7885C23 15.7765 22.987 16.1505 22.934 17.3235C22.881 18.4935 22.694 19.2935 22.422 19.9935C22.146 20.7275 21.7133 21.3927 21.154 21.9425C20.604 22.5025 19.939 22.9345 19.206 23.2105C18.506 23.4825 17.706 23.6685 16.536 23.7225C15.362 23.7765 14.988 23.7885 12 23.7885C9.012 23.7885 8.638 23.7755 7.465 23.7225C6.295 23.6695 5.495 23.4825 4.795 23.2105C4.06092 22.9344 3.39582 22.5017 2.846 21.9425C2.28638 21.3931 1.85331 20.7283 1.577 19.9945C1.306 19.2945 1.12 18.4945 1.066 17.3245C1.012 16.1495 1 15.7755 1 12.7885C1 9.80045 1.013 9.42645 1.066 8.25445C1.119 7.08245 1.306 6.28245 1.577 5.58245C1.85372 4.84853 2.28712 4.18377 2.847 3.63445C3.39604 3.07495 4.06047 2.6419 4.794 2.36545C5.494 2.09445 6.294 1.90845 7.464 1.85445H7.465ZM16.445 3.83445C15.285 3.78145 14.937 3.77045 12 3.77045C9.063 3.77045 8.715 3.78145 7.555 3.83445C6.482 3.88345 5.9 4.06245 5.512 4.21345C4.999 4.41345 4.632 4.65045 4.247 5.03545C3.88205 5.3905 3.60118 5.82273 3.425 6.30045C3.274 6.68845 3.095 7.27045 3.046 8.34345C2.993 9.50345 2.982 9.85145 2.982 12.7885C2.982 15.7255 2.993 16.0735 3.046 17.2335C3.095 18.3065 3.274 18.8885 3.425 19.2765C3.601 19.7535 3.882 20.1865 4.247 20.5415C4.602 20.9065 5.035 21.1875 5.512 21.3635C5.9 21.5145 6.482 21.6935 7.555 21.7425C8.715 21.7955 9.062 21.8065 12 21.8065C14.938 21.8065 15.285 21.7955 16.445 21.7425C17.518 21.6935 18.1 21.5145 18.488 21.3635C19.001 21.1635 19.368 20.9265 19.753 20.5415C20.118 20.1865 20.399 19.7535 20.575 19.2765C20.726 18.8885 20.905 18.3065 20.954 17.2335C21.007 16.0735 21.018 15.7255 21.018 12.7885C21.018 9.85145 21.007 9.50345 20.954 8.34345C20.905 7.27045 20.726 6.68845 20.575 6.30045C20.375 5.78745 20.138 5.42045 19.753 5.03545C19.3979 4.67052 18.9657 4.38966 18.488 4.21345C18.1 4.06245 17.518 3.88345 16.445 3.83445ZM10.595 16.1795C11.3797 16.5061 12.2534 16.5502 13.0669 16.3042C13.8805 16.0582 14.5834 15.5374 15.0556 14.8307C15.5278 14.124 15.7401 13.2753 15.656 12.4296C15.572 11.5838 15.197 10.7934 14.595 10.1935C14.2112 9.80993 13.7472 9.51626 13.2363 9.3336C12.7255 9.15093 12.1804 9.08381 11.6405 9.13707C11.1006 9.19032 10.5792 9.36263 10.1138 9.64158C9.64845 9.92054 9.25074 10.2992 8.9493 10.7503C8.64786 11.2014 8.45019 11.7137 8.37052 12.2504C8.29084 12.7871 8.33115 13.3347 8.48854 13.854C8.64593 14.3732 8.91648 14.8511 9.28072 15.2532C9.64496 15.6553 10.0938 15.9716 10.595 16.1795ZM8.002 8.79045C8.52702 8.26543 9.15032 7.84896 9.8363 7.56481C10.5223 7.28067 11.2575 7.13443 12 7.13443C12.7425 7.13443 13.4777 7.28067 14.1637 7.56481C14.8497 7.84895 15.473 8.26543 15.998 8.79045C16.523 9.31548 16.9395 9.93877 17.2236 10.6248C17.5078 11.3107 17.654 12.046 17.654 12.7885C17.654 13.5309 17.5078 14.2662 17.2236 14.9522C16.9395 15.6381 16.523 16.2614 15.998 16.7865C14.9377 17.8468 13.4995 18.4425 12 18.4425C10.5005 18.4425 9.06234 17.8468 8.002 16.7865C6.94166 15.7261 6.34597 14.288 6.34597 12.7885C6.34597 11.2889 6.94166 9.85079 8.002 8.79045ZM18.908 7.97645C19.0381 7.85372 19.1423 7.70613 19.2143 7.54243C19.2863 7.37872 19.3248 7.20222 19.3274 7.02338C19.33 6.84454 19.2967 6.667 19.2295 6.50126C19.1622 6.33552 19.0624 6.18496 18.936 6.05849C18.8095 5.93202 18.6589 5.83221 18.4932 5.76497C18.3275 5.69773 18.1499 5.66443 17.9711 5.66704C17.7922 5.66964 17.6157 5.70811 17.452 5.78015C17.2883 5.85219 17.1407 5.95635 17.018 6.08645C16.7793 6.33948 16.6486 6.67557 16.6537 7.02338C16.6588 7.37119 16.7992 7.70333 17.0452 7.9493C17.2911 8.19526 17.6233 8.33568 17.9711 8.34075C18.3189 8.34582 18.655 8.21514 18.908 7.97645Z" fill="#ADADAD"/>
</svg>
