<svg width="18" height="23" viewBox="0 0 18 23" fill="none" xmlns="http://www.w3.org/2000/svg">
<path d="M15.4999 7.66665H14.4166V5.49998C14.4166 2.50998 11.9899 0.083313 8.99992 0.083313C6.00992 0.083313 3.58325 2.50998 3.58325 5.49998V7.66665H2.49992C1.30825 7.66665 0.333252 8.64165 0.333252 9.83331V20.6666C0.333252 21.8583 1.30825 22.8333 2.49992 22.8333H15.4999C16.6916 22.8333 17.6666 21.8583 17.6666 20.6666V9.83331C17.6666 8.64165 16.6916 7.66665 15.4999 7.66665ZM8.99992 17.4166C7.80825 17.4166 6.83325 16.4416 6.83325 15.25C6.83325 14.0583 7.80825 13.0833 8.99992 13.0833C10.1916 13.0833 11.1666 14.0583 11.1666 15.25C11.1666 16.4416 10.1916 17.4166 8.99992 17.4166ZM12.3583 7.66665H5.64158V5.49998C5.64158 3.64748 7.14742 2.14165 8.99992 2.14165C10.8524 2.14165 12.3583 3.64748 12.3583 5.49998V7.66665Z" fill="#1439C3"/>
</svg>
