<svg width="246" height="53" viewBox="0 0 246 53" fill="none" xmlns="http://www.w3.org/2000/svg">
<g clip-path="url(#clip0_105_863)">
<path d="M0.592811 46.2142L15.3947 12.5714C20.1947 27.4856 33.2519 33.9285 39.1804 35.2856C29.609 39.5714 9.43756 48.5285 5.32328 50.0714C1.20899 51.6142 -0.0659877 47.9285 0.592811 46.2142Z" fill="white"/>
<circle cx="37.879" cy="6.57137" r="2.57143" fill="white"/>
<circle cx="34.4501" cy="13.8572" r="1.71429" fill="white"/>
<circle cx="43.8788" cy="27.5713" r="1.71429" fill="white"/>
<circle cx="31.8788" cy="44.2856" r="1.71429" fill="white"/>
<circle cx="40.0219" cy="18.1428" r="1.71429" fill="white"/>
<circle cx="44.3075" cy="12.5713" r="1.71429" fill="white"/>
<circle cx="2.30755" cy="25.8572" r="1.71429" fill="white"/>
<path d="M25.4502 2.92853C27.6645 3.92853 30.7645 6.14281 25.4502 6.99996C18.8074 8.07139 24.1645 11.5 26.9502 11.9285C29.736 12.3571 27.3788 14.9285 23.9503 14.7142C20.5217 14.5 21.1646 17.0714 23.3074 18.5714" stroke="white" stroke-width="3" stroke-linecap="round"/>
<path d="M30.8076 27.1428C33.7362 25.2857 41.0933 21.8714 47.0933 23.0714" stroke="white" stroke-width="3" stroke-linecap="round"/>
<path d="M42.1644 33.357C43.9501 33.7856 46.8787 35.0713 44.3073 36.7856C41.093 38.9284 38.5216 40.6427 43.8787 41.2856C49.2358 41.9284 47.7358 42.5713 45.1644 44.4999C42.593 46.4284 44.5215 48.357 46.2358 48.7856" stroke="white" stroke-width="3" stroke-linecap="round"/>
<path d="M7.23605 21.1428C8.59319 17.5 10.836 9.31427 8.95033 5.71427C6.59319 1.21427 3.37891 4.85713 3.37891 7.21427" stroke="white" stroke-width="3" stroke-linecap="round"/>
</g>
<path d="M69.822 42V12.6H82.59C84.55 12.6 86.202 12.894 87.546 13.482C88.918 14.042 89.954 14.868 90.654 15.96C91.354 17.052 91.704 18.354 91.704 19.866C91.704 21.546 91.284 22.946 90.444 24.066C89.604 25.186 88.4 25.956 86.832 26.376L86.79 25.536C88.078 25.844 89.212 26.348 90.192 27.048C91.172 27.748 91.928 28.616 92.46 29.652C92.992 30.688 93.258 31.864 93.258 33.18C93.258 34.636 93.02 35.924 92.544 37.044C92.068 38.136 91.368 39.046 90.444 39.774C89.52 40.502 88.428 41.062 87.168 41.454C85.936 41.818 84.55 42 83.01 42H69.822ZM75.87 36.54H82.758C83.654 36.54 84.41 36.414 85.026 36.162C85.67 35.882 86.16 35.462 86.496 34.902C86.832 34.342 87 33.684 87 32.928C87 32.2 86.818 31.584 86.454 31.08C86.09 30.576 85.572 30.198 84.9 29.946C84.256 29.666 83.472 29.526 82.548 29.526H75.87V36.54ZM75.87 24.528H81.834C82.59 24.528 83.248 24.388 83.808 24.108C84.368 23.828 84.788 23.45 85.068 22.974C85.376 22.498 85.53 21.938 85.53 21.294C85.53 20.258 85.194 19.46 84.522 18.9C83.85 18.34 82.842 18.06 81.498 18.06H75.87V24.528ZM112.004 42.42C109.848 42.42 107.86 42.042 106.04 41.286C104.22 40.53 102.624 39.48 101.252 38.136C99.9081 36.764 98.8721 35.154 98.1441 33.306C97.4161 31.43 97.0521 29.4 97.0521 27.216C97.0521 25.004 97.4161 22.988 98.1441 21.168C98.8721 19.32 99.9081 17.71 101.252 16.338C102.624 14.966 104.22 13.902 106.04 13.146C107.86 12.39 109.848 12.012 112.004 12.012C114.188 12.012 116.176 12.39 117.968 13.146C119.788 13.902 121.37 14.966 122.714 16.338C124.086 17.71 125.136 19.32 125.864 21.168C126.592 23.016 126.956 25.032 126.956 27.216C126.956 29.4 126.592 31.416 125.864 33.264C125.136 35.112 124.086 36.722 122.714 38.094C121.37 39.466 119.788 40.53 117.968 41.286C116.176 42.042 114.188 42.42 112.004 42.42ZM112.004 36.456C113.236 36.456 114.37 36.232 115.406 35.784C116.47 35.336 117.38 34.692 118.136 33.852C118.892 33.012 119.48 32.032 119.9 30.912C120.348 29.792 120.572 28.56 120.572 27.216C120.572 25.872 120.348 24.64 119.9 23.52C119.48 22.4 118.892 21.434 118.136 20.622C117.38 19.782 116.47 19.138 115.406 18.69C114.37 18.214 113.236 17.976 112.004 17.976C110.772 17.976 109.638 18.214 108.602 18.69C107.566 19.138 106.656 19.782 105.872 20.622C105.088 21.434 104.486 22.4 104.066 23.52C103.674 24.64 103.478 25.872 103.478 27.216C103.478 28.56 103.674 29.792 104.066 30.912C104.486 32.032 105.088 33.012 105.872 33.852C106.656 34.692 107.566 35.336 108.602 35.784C109.638 36.232 110.772 36.456 112.004 36.456ZM132.658 42V12.6H145.678C147.498 12.6 149.15 13.02 150.634 13.86C152.118 14.672 153.28 15.778 154.12 17.178C154.988 18.578 155.422 20.174 155.422 21.966C155.422 23.73 154.988 25.34 154.12 26.796C153.28 28.224 152.118 29.358 150.634 30.198C149.15 31.038 147.498 31.458 145.678 31.458H138.748V42H132.658ZM149.332 42L141.856 28.728L148.324 27.678L156.64 42.042L149.332 42ZM138.748 26.334H145.384C146.14 26.334 146.798 26.166 147.358 25.83C147.946 25.466 148.394 24.976 148.702 24.36C149.01 23.716 149.164 23.002 149.164 22.218C149.164 21.378 148.982 20.65 148.618 20.034C148.254 19.418 147.722 18.942 147.022 18.606C146.322 18.242 145.51 18.06 144.586 18.06H138.748V26.334ZM158.58 42L170.088 12.6H175.716L187.182 42H180.714L174.792 26.166C174.624 25.718 174.414 25.144 174.162 24.444C173.938 23.744 173.7 23.002 173.448 22.218C173.196 21.434 172.958 20.692 172.734 19.992C172.51 19.264 172.342 18.662 172.23 18.186L173.364 18.144C173.196 18.788 173 19.46 172.776 20.16C172.58 20.832 172.37 21.532 172.146 22.26C171.922 22.96 171.684 23.646 171.432 24.318C171.18 24.99 170.942 25.648 170.718 26.292L164.796 42H158.58ZM163.914 35.826L165.972 30.744H179.454L181.554 35.826H163.914ZM187.824 42L199.332 12.6H204.96L216.426 42H209.958L204.036 26.166C203.868 25.718 203.658 25.144 203.406 24.444C203.182 23.744 202.944 23.002 202.692 22.218C202.44 21.434 202.202 20.692 201.978 19.992C201.754 19.264 201.586 18.662 201.474 18.186L202.608 18.144C202.44 18.788 202.244 19.46 202.02 20.16C201.824 20.832 201.614 21.532 201.39 22.26C201.166 22.96 200.928 23.646 200.676 24.318C200.424 24.99 200.186 25.648 199.962 26.292L194.04 42H187.824ZM193.158 35.826L195.216 30.744H208.698L210.798 35.826H193.158ZM217.068 42L228.576 12.6H234.204L245.67 42H239.202L233.28 26.166C233.112 25.718 232.902 25.144 232.65 24.444C232.426 23.744 232.188 23.002 231.936 22.218C231.684 21.434 231.446 20.692 231.222 19.992C230.998 19.264 230.83 18.662 230.718 18.186L231.852 18.144C231.684 18.788 231.488 19.46 231.264 20.16C231.068 20.832 230.858 21.532 230.634 22.26C230.41 22.96 230.172 23.646 229.92 24.318C229.668 24.99 229.43 25.648 229.206 26.292L223.284 42H217.068ZM222.402 35.826L224.46 30.744H237.942L240.042 35.826H222.402Z" fill="white"/>
<defs>
<clipPath id="clip0_105_863">
<rect width="48" height="48" fill="white" transform="translate(0 2.5)"/>
</clipPath>
</defs>
</svg>
