<svg xmlns="http://www.w3.org/2000/svg" viewbox="0 0 164 36">
  <g>
    <path fill="#0F2B94" d="m.395 31.143 9.868-22.429c3.2 9.943 11.905 14.238 15.857 15.143-6.38 2.857-19.828 8.829-22.571 9.857C.806 34.743-.044 32.286.395 31.143Z"/>
    <circle cx="25.252" cy="4.714" r="1.714" fill="#4F71ED"/>
    <circle cx="22.967" cy="9.571" r="1.143" fill="#4F71ED"/>
    <circle cx="29.253" cy="18.714" r="1.143" fill="#4F71ED"/>
    <circle cx="21.253" cy="29.857" r="1.143" fill="#4F71ED"/>
    <circle cx="26.681" cy="12.429" r="1.143" fill="#4F71ED"/>
    <circle cx="29.538" cy="8.714" r="1.143" fill="#4F71ED"/>
    <circle cx="1.538" cy="17.571" r="1.143" fill="#4F71ED"/>
    <path fill="none" stroke="#1439C3" stroke-linecap="round" stroke-width="2" d="M16.967 2.286c1.476.666 3.543 2.143 0 2.714-4.429.714-.857 3 1 3.286 1.857.285.286 2-2 1.857-2.286-.143-1.857 1.571-.429 2.571M20.538 18.428c1.953-1.238 6.857-3.514 10.857-2.714M28.11 22.571c1.19.286 3.142 1.143 1.428 2.286-2.143 1.429-3.857 2.572-.286 3 3.572.429 2.572.857.858 2.143-1.715 1.286-.43 2.571.714 2.857M4.824 14.429C5.729 12 7.224 6.543 5.967 4.143c-1.572-3-3.715-.572-3.715 1"/>
  </g>
  <path fill="#0F2B94" d="M46.548 28.5V8.9h8.512c1.307 0 2.408.196 3.304.588.915.373 1.605.924 2.072 1.652.467.728.7 1.596.7 2.604 0 1.12-.28 2.053-.84 2.8-.56.747-1.363 1.26-2.408 1.54l-.028-.56a6.428 6.428 0 0 1 2.268 1.008 4.815 4.815 0 0 1 1.512 1.736c.355.69.532 1.475.532 2.352 0 .97-.159 1.83-.476 2.576a4.64 4.64 0 0 1-1.4 1.82c-.616.485-1.344.859-2.184 1.12-.821.243-1.745.364-2.772.364h-8.792Zm4.032-3.64h4.592c.597 0 1.101-.084 1.512-.252.43-.187.756-.467.98-.84.224-.373.336-.812.336-1.316 0-.485-.121-.896-.364-1.232-.243-.336-.588-.588-1.036-.756-.43-.187-.952-.28-1.568-.28H50.58v4.676Zm0-8.008h3.976c.504 0 .943-.093 1.316-.28.373-.187.653-.439.84-.756.205-.317.308-.69.308-1.12 0-.69-.224-1.223-.672-1.596-.448-.373-1.12-.56-2.016-.56H50.58v4.312ZM74.67 28.78c-1.438 0-2.763-.252-3.977-.756a9.99 9.99 0 0 1-3.192-2.1 9.548 9.548 0 0 1-2.072-3.22c-.485-1.25-.728-2.604-.728-4.06 0-1.475.243-2.819.728-4.032a9.548 9.548 0 0 1 2.072-3.22 9.764 9.764 0 0 1 3.192-2.128c1.214-.504 2.54-.756 3.976-.756 1.456 0 2.782.252 3.976.756a9.455 9.455 0 0 1 3.164 2.128 9.342 9.342 0 0 1 2.1 3.22c.486 1.232.728 2.576.728 4.032s-.242 2.8-.728 4.032a9.342 9.342 0 0 1-2.1 3.22 9.455 9.455 0 0 1-3.164 2.128c-1.194.504-2.52.756-3.976.756Zm0-3.976c.82 0 1.577-.15 2.267-.448a5.055 5.055 0 0 0 1.82-1.288 6.097 6.097 0 0 0 1.176-1.96c.3-.747.448-1.568.448-2.464 0-.896-.149-1.717-.448-2.464a5.773 5.773 0 0 0-1.176-1.932 5.055 5.055 0 0 0-1.82-1.288 5.367 5.367 0 0 0-2.268-.476c-.82 0-1.577.159-2.268.476a5.398 5.398 0 0 0-1.82 1.288 5.548 5.548 0 0 0-1.204 1.932c-.26.747-.392 1.568-.392 2.464 0 .896.131 1.717.392 2.464.28.747.682 1.4 1.204 1.96.523.56 1.13.99 1.82 1.288.691.299 1.447.448 2.268.448ZM88.438 28.5V8.9h8.68c1.213 0 2.314.28 3.304.84a6.027 6.027 0 0 1 2.324 2.212c.578.933.868 1.997.868 3.192 0 1.176-.29 2.25-.868 3.22a6.167 6.167 0 0 1-2.324 2.268c-.99.56-2.091.84-3.304.84h-4.62V28.5h-4.06Zm11.116 0-4.984-8.848 4.312-.7 5.544 9.576-4.872-.028Zm-7.056-10.444h4.424c.504 0 .942-.112 1.316-.336.392-.243.69-.57.896-.98.205-.43.308-.905.308-1.428 0-.56-.122-1.045-.364-1.456a2.408 2.408 0 0 0-1.064-.952c-.467-.243-1.008-.364-1.624-.364h-3.892v5.516ZM105.72 28.5l7.672-19.6h3.752l7.644 19.6h-4.312l-3.948-10.556a95.936 95.936 0 0 1-.42-1.148l-.476-1.484-.476-1.484a19.71 19.71 0 0 1-.336-1.204l.756-.028c-.112.43-.243.877-.392 1.344-.131.448-.271.915-.42 1.4-.149.467-.308.924-.476 1.372-.168.448-.327.887-.476 1.316L109.864 28.5h-4.144Zm3.556-4.116 1.372-3.388h8.988l1.4 3.388h-11.76Z"/>
  <path fill="#1439C3" d="m125.216 28.5 7.672-19.6h3.752l7.644 19.6h-4.312l-3.948-10.556a95.936 95.936 0 0 1-.42-1.148l-.476-1.484-.476-1.484a19.71 19.71 0 0 1-.336-1.204l.756-.028c-.112.43-.242.877-.392 1.344-.13.448-.27.915-.42 1.4-.149.467-.308.924-.476 1.372-.168.448-.326.887-.476 1.316L129.36 28.5h-4.144Zm3.556-4.116 1.372-3.388h8.988l1.4 3.388h-11.76Z"/>
  <path fill="#214BE8" d="m144.712 28.5 7.672-19.6h3.752l7.644 19.6h-4.312l-3.948-10.556a95.936 95.936 0 0 1-.42-1.148l-.476-1.484-.476-1.484a19.71 19.71 0 0 1-.336-1.204l.756-.028c-.112.43-.242.877-.392 1.344-.13.448-.27.915-.42 1.4-.149.467-.308.924-.476 1.372-.168.448-.326.887-.476 1.316L148.856 28.5h-4.144Zm3.556-4.116 1.372-3.388h8.988l1.4 3.388h-11.76Z"/>
</svg>
