<svg width="280" height="168" viewBox="0 0 280 168" fill="none" xmlns="http://www.w3.org/2000/svg">
<rect width="280" height="168" rx="16" fill="#272422"/>
<path fill-rule="evenodd" clip-rule="evenodd" d="M37.6295 24.0699C35.6545 24.2928 33.3443 25.0768 31.5929 26.1184C27.5557 28.5196 24.9053 32.4109 24.1244 37.0837C23.9585 38.0769 23.9585 40.923 24.1245 41.9168C24.4627 43.9413 25.142 45.8099 26.1448 47.4743C28.5035 51.3892 32.3421 54.0175 36.8763 54.8222C37.9418 55.0113 40.3163 55.059 41.4269 54.9137C44.0307 54.5729 46.4511 53.6263 48.5227 52.1388L49.0854 51.7348L49.6969 52.1693C51.5915 53.5157 53.7151 54.3977 56.083 54.8217C57.0294 54.9911 59.2728 55.0561 60.3357 54.9448C65.6496 54.3884 70.336 51.1031 72.6521 46.3105C73.6892 44.1644 74.1184 42.3745 74.1748 39.9598C74.2244 37.8356 74.0354 36.4721 73.4412 34.6672C72.5824 32.0591 71.1756 29.895 69.1075 28.0009C66.708 25.8033 63.5609 24.3875 60.3358 24.0547C59.2741 23.9451 57.0261 24.0102 56.083 24.1778C53.7555 24.5915 51.5716 25.4989 49.6969 26.8312L49.0854 27.2657L48.5227 26.8617C46.4724 25.3895 44.0147 24.4246 41.4708 24.0933C40.6524 23.9867 38.4837 23.9734 37.6295 24.0699Z" fill="#FFFF00"/>
<path fill-rule="evenodd" clip-rule="evenodd" d="M37.6295 24.0699C35.6545 24.2928 33.3443 25.0768 31.5929 26.1184C27.5557 28.5196 24.9053 32.4109 24.1244 37.0837C23.9585 38.0768 23.9585 40.923 24.1245 41.9167C24.4627 43.9412 25.142 45.8099 26.1448 47.4743C28.5035 51.3892 32.3421 54.0175 36.8763 54.8222C37.9418 55.0113 40.3163 55.059 41.4269 54.9137C44.0312 54.5728 46.451 53.6264 48.5237 52.1381L49.0874 51.7333L49.6038 52.1043C51.5149 53.4772 53.7003 54.3948 56.0833 54.8248C56.8168 54.9572 57.0794 54.9718 58.6878 54.97C60.1019 54.9683 60.6082 54.9449 61.1044 54.8582C65.8358 54.0315 69.6909 51.4042 72.0755 47.381C73.0415 45.7513 73.6599 44.061 74.0104 42.0926C74.1772 41.1559 74.2426 38.9103 74.134 37.857C73.6624 33.2881 71.0828 29.083 67.1614 26.4904C65.2255 25.2104 62.6582 24.2943 60.3359 24.0546C59.2559 23.9432 57.0272 24.0103 56.0516 24.1836C53.7313 24.5958 51.4979 25.5354 49.6038 26.8962L49.0874 27.2671L48.5237 26.8623C46.4724 25.3894 44.0152 24.4246 41.4708 24.0932C40.6524 23.9867 38.4837 23.9734 37.6295 24.0699Z" fill="#FFAA00"/>
<path fill-rule="evenodd" clip-rule="evenodd" d="M37.6295 24.0699C35.6545 24.2928 33.3443 25.0768 31.5929 26.1184C27.5557 28.5196 24.9053 32.4109 24.1244 37.0837C23.9585 38.0769 23.9585 40.923 24.1245 41.9168C24.4627 43.9413 25.142 45.81 26.1448 47.4743C28.5035 51.3892 32.3421 54.0175 36.8763 54.8222C37.9418 55.0113 40.3163 55.059 41.4269 54.9137C44.0312 54.5728 46.451 53.6264 48.5237 52.1381L49.0874 51.7333L49.6038 52.1043C51.7646 53.6567 54.3268 54.6425 56.9869 54.9449C57.9719 55.0569 60.3402 54.9884 61.2868 54.8205C66.7078 53.8591 71.0894 50.3056 73.1447 45.2038C73.5893 44.1002 73.9903 42.4806 74.1249 41.2445C74.2236 40.3389 74.207 38.4424 74.0926 37.5445C73.7305 34.7025 72.5588 31.9715 70.7299 29.7066C70.1475 28.9853 68.9538 27.8143 68.2284 27.2524C66.1706 25.6589 63.7581 24.6042 61.1358 24.1517C60.1954 23.9895 57.7821 23.9544 56.7672 24.0883C54.0871 24.4418 51.8253 25.3296 49.6029 26.9004L49.0857 27.2659L48.5229 26.8618C46.4724 25.3895 44.0148 24.4247 41.4708 24.0933C40.6524 23.9867 38.4837 23.9734 37.6295 24.0699Z" fill="#F79E1B"/>
<path fill-rule="evenodd" clip-rule="evenodd" d="M37.6295 24.0699C35.6545 24.2928 33.3443 25.0768 31.5929 26.1184C27.5557 28.5196 24.9053 32.4109 24.1244 37.0837C23.9585 38.0769 23.9585 40.923 24.1245 41.9168C24.4627 43.9413 25.142 45.81 26.1448 47.4743C28.5035 51.3892 32.3421 54.0175 36.8763 54.8222C37.9418 55.0113 40.3163 55.059 41.4269 54.9137C45.9573 54.3207 49.9028 51.8776 52.4243 48.1042C54.6478 44.7766 55.4943 40.6519 54.7631 36.7071C54.5795 35.7162 54.3091 34.7385 54.0037 33.9612C51.8794 28.5542 47.1539 24.8335 41.4708 24.0933C40.6524 23.9867 38.4837 23.9734 37.6295 24.0699Z" fill="#FF8000"/>
<path fill-rule="evenodd" clip-rule="evenodd" d="M37.6295 24.0699C35.6545 24.2928 33.3443 25.0768 31.5929 26.1184C27.5557 28.5196 24.9053 32.4109 24.1244 37.0837C23.9585 38.0769 23.9585 40.923 24.1245 41.9168C24.4627 43.9413 25.142 45.81 26.1448 47.4743C28.5035 51.3892 32.3421 54.0175 36.8763 54.8222C37.9418 55.0113 40.3163 55.059 41.4269 54.9137C43.5333 54.6379 45.4751 53.9858 47.2383 52.9619C48.5418 52.205 49.6468 51.319 50.8005 50.1055C53.1583 47.6259 54.5996 44.4162 54.9267 40.917C55.018 39.9405 54.9695 38.1113 54.8282 37.2092C54.2424 33.4664 52.4374 30.213 49.5505 27.6966C47.292 25.728 44.5159 24.4899 41.4708 24.0933C40.6524 23.9867 38.4837 23.9734 37.6295 24.0699Z" fill="#FF5F00"/>
<path fill-rule="evenodd" clip-rule="evenodd" d="M37.6295 24.0699C35.6545 24.2928 33.3443 25.0768 31.5929 26.1184C27.5557 28.5196 24.9053 32.4109 24.1244 37.0837C23.9585 38.0769 23.9585 40.923 24.1245 41.9168C24.4627 43.9413 25.142 45.81 26.1448 47.4743C28.5035 51.3892 32.3421 54.0175 36.8763 54.8222C37.9418 55.0113 40.3163 55.059 41.4269 54.9137C44.0496 54.5704 46.5583 53.5806 48.6065 52.0812L49.1013 51.7189L48.7634 51.4375C48.0945 50.8804 46.8441 49.5602 46.3151 48.8525C44.733 46.7358 43.8266 44.6057 43.361 41.9107C43.2411 41.2165 43.2211 40.8721 43.2212 39.5002C43.2214 38.1157 43.2409 37.7858 43.366 37.0562C43.8117 34.4564 44.7738 32.2124 46.3279 30.1479C46.8983 29.3902 47.9645 28.2572 48.7011 27.626L49.1023 27.2823L48.607 26.9197C46.5792 25.4352 44.0343 24.4272 41.4708 24.0933C40.6524 23.9867 38.4837 23.9734 37.6295 24.0699Z" fill="#F6360C"/>
<path fill-rule="evenodd" clip-rule="evenodd" d="M37.6295 24.0699C35.6545 24.2928 33.3443 25.0768 31.5929 26.1184C27.5557 28.5196 24.9053 32.4109 24.1244 37.0837C23.9585 38.0769 23.9585 40.923 24.1245 41.9168C24.4627 43.9413 25.142 45.81 26.1448 47.4743C28.5035 51.3892 32.3421 54.0175 36.8763 54.8222C37.9418 55.0113 40.3163 55.059 41.4269 54.9137C44.0492 54.5704 46.5584 53.5806 48.6058 52.0817L49.0999 51.7199L48.8255 51.4945C47.1131 50.088 45.7571 48.3685 44.7534 46.3304C43.9912 44.7828 43.5072 43.1636 43.2746 41.3832C43.1283 40.2633 43.1763 38.0191 43.3697 36.9348C43.9683 33.5799 45.4942 30.6912 47.901 28.3562C48.2585 28.0094 48.6745 27.6255 48.8255 27.5031L49.0999 27.2806L48.6058 26.9188C46.5793 25.4352 44.0336 24.4271 41.4708 24.0933C40.6524 23.9867 38.4837 23.9734 37.6295 24.0699Z" fill="#F32710"/>
<path fill-rule="evenodd" clip-rule="evenodd" d="M37.6295 24.0699C35.6545 24.2928 33.3443 25.0768 31.5929 26.1184C27.5557 28.5196 24.9053 32.4109 24.1244 37.0837C23.9585 38.0769 23.9585 40.923 24.1245 41.9168C24.4627 43.9413 25.142 45.81 26.1448 47.4743C28.5035 51.3892 32.3421 54.0175 36.8763 54.8222C37.9418 55.0113 40.3163 55.059 41.4269 54.9137C43.541 54.6369 45.482 53.9843 47.2373 52.96C48.0224 52.5018 49.0217 51.8192 49.0217 51.7411C49.0217 51.7183 48.7322 51.4454 48.3784 51.1345C46.5188 49.501 44.9668 47.232 44.0911 44.8668C43.7702 44.0001 43.4055 42.515 43.2741 41.5402C43.1258 40.4398 43.1258 38.5597 43.2742 37.4603C43.4767 35.9603 43.9605 34.3083 44.602 32.9261C45.4495 31.1002 46.8796 29.1884 48.3876 27.8656C48.7364 27.5596 49.0217 27.2888 49.0217 27.2637C49.0217 27.1818 48.0408 26.5094 47.2373 26.0405C45.5084 25.0316 43.5203 24.3602 41.4708 24.0933C40.6524 23.9867 38.4837 23.9734 37.6295 24.0699Z" fill="#EB001B"/>
<g clip-path="url(#clip0_76_1075)">
<path d="M44 132C44 130.9 44.9 130 46 130V126C46 124.9 45.1 124 44 124H28C26.9 124 26.01 124.9 26.01 126V130C27.11 130 28 130.9 28 132C28 133.1 27.11 134 26 134V138C26 139.1 26.9 140 28 140H44C45.1 140 46 139.1 46 138V134C44.9 134 44 133.1 44 132ZM39.58 136.8L36 134.5L32.42 136.8L33.5 132.68L30.21 129.99L34.45 129.74L36 125.8L37.54 129.75L41.78 130L38.49 132.69L39.58 136.8Z" fill="white"/>
</g>
<path d="M61.568 137L65.628 128.152L65.796 128.6H60.84V127.2H66.902L67.098 128.166L63.192 137H61.568ZM68.6165 137L68.1545 135.852L71.1505 132.478C71.3091 132.31 71.4725 132.119 71.6405 131.904C71.8178 131.68 71.9858 131.451 72.1445 131.218C72.3031 130.985 72.4291 130.756 72.5225 130.532C72.6251 130.299 72.6765 130.079 72.6765 129.874C72.6765 129.575 72.6158 129.323 72.4945 129.118C72.3825 128.903 72.2145 128.74 71.9905 128.628C71.7758 128.516 71.5145 128.46 71.2065 128.46C70.9358 128.46 70.6698 128.539 70.4085 128.698C70.1471 128.857 69.9091 129.081 69.6945 129.37C69.4798 129.659 69.3118 129.995 69.1905 130.378L68.0285 129.65C68.1871 129.109 68.4251 128.647 68.7425 128.264C69.0691 127.872 69.4565 127.573 69.9045 127.368C70.3618 127.163 70.8565 127.06 71.3885 127.06C71.9391 127.06 72.4291 127.177 72.8585 127.41C73.2878 127.634 73.6238 127.951 73.8665 128.362C74.1091 128.763 74.2305 129.23 74.2305 129.762C74.2305 129.977 74.2071 130.196 74.1605 130.42C74.1138 130.644 74.0391 130.877 73.9365 131.12C73.8338 131.353 73.7031 131.601 73.5445 131.862C73.3858 132.114 73.1945 132.38 72.9705 132.66C72.7558 132.94 72.5085 133.234 72.2285 133.542L70.0025 135.964L69.7225 135.544H74.5385V137H68.6165ZM80.2802 137V127.2H81.6382L87.6302 135.222L87.4062 135.348C87.3689 135.115 87.3362 134.863 87.3082 134.592C87.2802 134.312 87.2522 134.018 87.2242 133.71C87.2055 133.393 87.1869 133.061 87.1682 132.716C87.1589 132.361 87.1495 131.993 87.1402 131.61C87.1309 131.227 87.1262 130.831 87.1262 130.42V127.2H88.6382V137H87.2522L81.3582 129.272L81.5122 129.076C81.5589 129.645 81.5962 130.131 81.6242 130.532C81.6615 130.924 81.6895 131.26 81.7082 131.54C81.7362 131.811 81.7549 132.035 81.7642 132.212C81.7735 132.38 81.7782 132.52 81.7782 132.632C81.7875 132.744 81.7922 132.842 81.7922 132.926V137H80.2802ZM93.5938 137.14C93.0711 137.14 92.6138 137.019 92.2218 136.776C91.8391 136.533 91.5404 136.193 91.3258 135.754C91.1204 135.315 91.0178 134.793 91.0178 134.186V129.65H92.4598V133.794C92.4598 134.223 92.5251 134.597 92.6558 134.914C92.7958 135.222 92.9918 135.46 93.2438 135.628C93.5051 135.796 93.8178 135.88 94.1818 135.88C94.4524 135.88 94.6998 135.838 94.9238 135.754C95.1478 135.661 95.3391 135.535 95.4978 135.376C95.6658 135.217 95.7964 135.026 95.8898 134.802C95.9831 134.578 96.0298 134.335 96.0298 134.074V129.65H97.4718V137H96.0298V135.46L96.2818 135.292C96.1698 135.637 95.9784 135.95 95.7078 136.23C95.4464 136.51 95.1338 136.734 94.7698 136.902C94.4058 137.061 94.0138 137.14 93.5938 137.14ZM93.2718 128.516L92.7958 127.802L94.7978 126.052L95.7078 127.2L93.2718 128.516ZM99.4663 137V129.65H100.922V131.218L100.656 131.386C100.731 131.143 100.848 130.91 101.006 130.686C101.174 130.462 101.375 130.266 101.608 130.098C101.851 129.921 102.108 129.781 102.378 129.678C102.658 129.575 102.943 129.524 103.232 129.524C103.652 129.524 104.021 129.594 104.338 129.734C104.656 129.874 104.917 130.084 105.122 130.364C105.328 130.644 105.477 130.994 105.57 131.414L105.346 131.358L105.444 131.12C105.547 130.905 105.687 130.705 105.864 130.518C106.051 130.322 106.261 130.149 106.494 130C106.728 129.851 106.975 129.734 107.236 129.65C107.498 129.566 107.754 129.524 108.006 129.524C108.557 129.524 109.01 129.636 109.364 129.86C109.728 130.084 109.999 130.425 110.176 130.882C110.363 131.339 110.456 131.909 110.456 132.59V137H109V132.674C109 132.254 108.944 131.913 108.832 131.652C108.73 131.381 108.571 131.181 108.356 131.05C108.142 130.919 107.866 130.854 107.53 130.854C107.269 130.854 107.022 130.901 106.788 130.994C106.564 131.078 106.368 131.199 106.2 131.358C106.032 131.517 105.902 131.703 105.808 131.918C105.715 132.123 105.668 132.352 105.668 132.604V137H104.212V132.646C104.212 132.263 104.156 131.941 104.044 131.68C103.932 131.409 103.769 131.204 103.554 131.064C103.34 130.924 103.078 130.854 102.77 130.854C102.509 130.854 102.266 130.901 102.042 130.994C101.818 131.078 101.622 131.199 101.454 131.358C101.286 131.507 101.156 131.689 101.062 131.904C100.969 132.109 100.922 132.333 100.922 132.576V137H99.4663ZM115.817 137.14C115.061 137.14 114.389 136.981 113.801 136.664C113.222 136.337 112.765 135.894 112.429 135.334C112.102 134.774 111.939 134.13 111.939 133.402C111.939 132.823 112.032 132.296 112.219 131.82C112.406 131.344 112.662 130.933 112.989 130.588C113.325 130.233 113.722 129.963 114.179 129.776C114.646 129.58 115.15 129.482 115.691 129.482C116.167 129.482 116.61 129.575 117.021 129.762C117.432 129.939 117.786 130.187 118.085 130.504C118.393 130.821 118.626 131.199 118.785 131.638C118.953 132.067 119.032 132.539 119.023 133.052L119.009 133.668H113.003L112.681 132.52H117.763L117.553 132.758V132.422C117.525 132.114 117.422 131.839 117.245 131.596C117.068 131.353 116.844 131.162 116.573 131.022C116.302 130.882 116.008 130.812 115.691 130.812C115.187 130.812 114.762 130.91 114.417 131.106C114.072 131.293 113.81 131.573 113.633 131.946C113.456 132.31 113.367 132.763 113.367 133.304C113.367 133.817 113.474 134.265 113.689 134.648C113.904 135.021 114.207 135.311 114.599 135.516C114.991 135.721 115.444 135.824 115.957 135.824C116.321 135.824 116.657 135.763 116.965 135.642C117.282 135.521 117.623 135.301 117.987 134.984L118.715 136.006C118.491 136.23 118.216 136.426 117.889 136.594C117.572 136.762 117.231 136.897 116.867 137C116.512 137.093 116.162 137.14 115.817 137.14ZM120.59 137V129.65H122.046V131.96L121.906 131.4C122.009 131.045 122.181 130.723 122.424 130.434C122.676 130.145 122.961 129.916 123.278 129.748C123.605 129.58 123.941 129.496 124.286 129.496C124.445 129.496 124.594 129.51 124.734 129.538C124.883 129.566 125 129.599 125.084 129.636L124.706 131.204C124.594 131.157 124.468 131.12 124.328 131.092C124.197 131.055 124.067 131.036 123.936 131.036C123.684 131.036 123.441 131.087 123.208 131.19C122.984 131.283 122.783 131.419 122.606 131.596C122.438 131.764 122.303 131.965 122.2 132.198C122.097 132.422 122.046 132.669 122.046 132.94V137H120.59ZM129.226 137.14C128.507 137.14 127.863 136.977 127.294 136.65C126.734 136.314 126.291 135.861 125.964 135.292C125.637 134.713 125.474 134.055 125.474 133.318C125.474 132.581 125.637 131.927 125.964 131.358C126.291 130.779 126.734 130.327 127.294 130C127.863 129.664 128.507 129.496 129.226 129.496C129.935 129.496 130.57 129.664 131.13 130C131.699 130.327 132.147 130.779 132.474 131.358C132.801 131.927 132.964 132.581 132.964 133.318C132.964 134.055 132.801 134.713 132.474 135.292C132.147 135.861 131.699 136.314 131.13 136.65C130.57 136.977 129.935 137.14 129.226 137.14ZM129.226 135.824C129.665 135.824 130.057 135.717 130.402 135.502C130.747 135.278 131.018 134.979 131.214 134.606C131.41 134.223 131.503 133.794 131.494 133.318C131.503 132.833 131.41 132.403 131.214 132.03C131.018 131.647 130.747 131.349 130.402 131.134C130.057 130.919 129.665 130.812 129.226 130.812C128.787 130.812 128.391 130.924 128.036 131.148C127.691 131.363 127.42 131.661 127.224 132.044C127.028 132.417 126.935 132.842 126.944 133.318C126.935 133.794 127.028 134.223 127.224 134.606C127.42 134.979 127.691 135.278 128.036 135.502C128.391 135.717 128.787 135.824 129.226 135.824ZM136.985 137.14C136.369 137.14 135.814 137.033 135.319 136.818C134.825 136.603 134.414 136.286 134.087 135.866L135.067 135.026C135.347 135.353 135.651 135.591 135.977 135.74C136.313 135.88 136.691 135.95 137.111 135.95C137.279 135.95 137.433 135.931 137.573 135.894C137.723 135.847 137.849 135.782 137.951 135.698C138.063 135.614 138.147 135.516 138.203 135.404C138.259 135.283 138.287 135.152 138.287 135.012C138.287 134.769 138.199 134.573 138.021 134.424C137.928 134.359 137.779 134.289 137.573 134.214C137.377 134.13 137.121 134.046 136.803 133.962C136.262 133.822 135.819 133.663 135.473 133.486C135.128 133.309 134.862 133.108 134.675 132.884C134.535 132.707 134.433 132.515 134.367 132.31C134.302 132.095 134.269 131.862 134.269 131.61C134.269 131.302 134.335 131.022 134.465 130.77C134.605 130.509 134.792 130.285 135.025 130.098C135.268 129.902 135.548 129.753 135.865 129.65C136.192 129.547 136.537 129.496 136.901 129.496C137.247 129.496 137.587 129.543 137.923 129.636C138.269 129.729 138.586 129.865 138.875 130.042C139.165 130.219 139.407 130.429 139.603 130.672L138.777 131.582C138.6 131.405 138.404 131.251 138.189 131.12C137.984 130.98 137.774 130.873 137.559 130.798C137.345 130.723 137.149 130.686 136.971 130.686C136.775 130.686 136.598 130.705 136.439 130.742C136.281 130.779 136.145 130.835 136.033 130.91C135.931 130.985 135.851 131.078 135.795 131.19C135.739 131.302 135.711 131.428 135.711 131.568C135.721 131.689 135.749 131.806 135.795 131.918C135.851 132.021 135.926 132.109 136.019 132.184C136.122 132.259 136.276 132.338 136.481 132.422C136.687 132.506 136.948 132.585 137.265 132.66C137.732 132.781 138.115 132.917 138.413 133.066C138.721 133.206 138.964 133.369 139.141 133.556C139.328 133.733 139.459 133.939 139.533 134.172C139.608 134.405 139.645 134.667 139.645 134.956C139.645 135.376 139.524 135.754 139.281 136.09C139.048 136.417 138.731 136.673 138.329 136.86C137.928 137.047 137.48 137.14 136.985 137.14Z" fill="white"/>
<defs>
<clipPath id="clip0_76_1075">
<rect width="24" height="24" fill="white" transform="translate(24 120)"/>
</clipPath>
</defs>
</svg>
