<svg width="22" height="22" viewBox="0 0 22 22" fill="none" xmlns="http://www.w3.org/2000/svg">
<path d="M10.9998 0.166656C5.01984 0.166656 0.166504 5.01999 0.166504 11C0.166504 16.98 5.01984 21.8333 10.9998 21.8333C16.9798 21.8333 21.8332 16.98 21.8332 11C21.8332 5.01999 16.9798 0.166656 10.9998 0.166656ZM10.9998 3.41666C12.7982 3.41666 14.2498 4.86832 14.2498 6.66666C14.2498 8.46499 12.7982 9.91666 10.9998 9.91666C9.2015 9.91666 7.74984 8.46499 7.74984 6.66666C7.74984 4.86832 9.2015 3.41666 10.9998 3.41666ZM10.9998 18.8C8.2915 18.8 5.89734 17.4133 4.49984 15.3117C4.53234 13.1558 8.83317 11.975 10.9998 11.975C13.1557 11.975 17.4673 13.1558 17.4998 15.3117C16.1023 17.4133 13.7082 18.8 10.9998 18.8Z" fill="#1439C3"/>
</svg>
