<svg width="24" height="24" viewBox="0 0 24 24" fill="none" xmlns="http://www.w3.org/2000/svg">
<path d="M5.158 13.324C6.76404 13.324 8.066 12.022 8.066 10.416C8.066 8.80995 6.76404 7.508 5.158 7.508C3.55196 7.508 2.25 8.80995 2.25 10.416C2.25 12.022 3.55196 13.324 5.158 13.324Z" stroke="#616FA5" stroke-linecap="round" stroke-linejoin="round"/>
<path d="M12 13.324C13.6061 13.324 14.908 12.022 14.908 10.416C14.908 8.80995 13.6061 7.508 12 7.508C10.394 7.508 9.09204 8.80995 9.09204 10.416C9.09204 12.022 10.394 13.324 12 13.324Z" stroke="#616FA5" stroke-linecap="round" stroke-linejoin="round"/>
<path d="M18.842 13.324C20.448 13.324 21.75 12.022 21.75 10.416C21.75 8.80995 20.448 7.508 18.842 7.508C17.2359 7.508 15.934 8.80995 15.934 10.416C15.934 12.022 17.2359 13.324 18.842 13.324Z" stroke="#616FA5" stroke-linecap="round" stroke-linejoin="round"/>
<path d="M8.57902 16.492C10.1851 16.492 11.487 15.1901 11.487 13.584C11.487 11.978 10.1851 10.676 8.57902 10.676C6.97298 10.676 5.67102 11.978 5.67102 13.584C5.67102 15.1901 6.97298 16.492 8.57902 16.492Z" stroke="#616FA5" stroke-linecap="round" stroke-linejoin="round"/>
<path d="M15.4209 16.492C17.027 16.492 18.3289 15.1901 18.3289 13.584C18.3289 11.978 17.027 10.676 15.4209 10.676C13.8149 10.676 12.5129 11.978 12.5129 13.584C12.5129 15.1901 13.8149 16.492 15.4209 16.492Z" stroke="#616FA5" stroke-linecap="round" stroke-linejoin="round"/>
</svg>
