<svg width="20" height="20" viewBox="0 0 20 20" fill="none" xmlns="http://www.w3.org/2000/svg">
<path d="M10 0.399963C7.45395 0.399963 5.01215 1.41139 3.2118 3.21174C1.41145 5.01209 0.400024 7.45388 0.400024 9.99996C0.400024 12.546 1.41145 14.9878 3.2118 16.7882C5.01215 18.5885 7.45395 19.6 10 19.6C12.5461 19.6 14.9879 18.5885 16.7882 16.7882C18.5886 14.9878 19.6 12.546 19.6 9.99996C19.6 7.45388 18.5886 5.01209 16.7882 3.21174C14.9879 1.41139 12.5461 0.399963 10 0.399963ZM6.51042 2.35596L9.40242 4.04316V6.08316L6.07962 8.42556L4.20762 7.74516L3.45642 4.73076C4.27656 3.71312 5.32209 2.90011 6.51042 2.35596ZM1.64082 10.8304L3.83322 8.88636L5.68842 9.55956L6.94242 13.5076L6.08202 14.7952H3.10242C2.28343 13.6207 1.78012 12.2554 1.64082 10.8304ZM8.04762 18.172L7.06962 15.4768L7.92162 14.2012H12.082L12.9352 15.4768L11.9572 18.1708C10.6721 18.4776 9.33276 18.4776 8.04762 18.1708V18.172ZM16.8976 14.7952H13.924L13.06 13.5052L14.29 9.56076L16.1704 8.88396L18.3592 10.8304C18.2199 12.2554 17.7166 13.6207 16.8976 14.7952ZM16.5496 4.73916L15.7984 7.74276L13.8976 8.42676L10.6012 6.08436V4.04436L13.492 2.35596C14.6824 2.90166 15.7293 3.71723 16.5496 4.73796V4.73916Z" fill="#616FA5"/>
</svg>
