<svg width="24" height="25" viewBox="0 0 24 25" fill="none" xmlns="http://www.w3.org/2000/svg">
<path d="M23.643 5.72541C22.808 6.09541 21.911 6.34541 20.968 6.45841C21.941 5.8762 22.669 4.95987 23.016 3.88041C22.1019 4.4234 21.1014 4.8056 20.058 5.01041C19.3564 4.26127 18.4271 3.76473 17.4143 3.59788C16.4016 3.43103 15.3621 3.6032 14.4572 4.08766C13.5524 4.57212 12.8328 5.34177 12.4102 6.27711C11.9875 7.21245 11.8855 8.26116 12.12 9.26041C10.2677 9.1674 8.45564 8.68596 6.80144 7.84731C5.14723 7.00867 3.68785 5.83157 2.51801 4.39241C2.11801 5.08241 1.88801 5.88241 1.88801 6.73441C1.88757 7.5014 2.07644 8.25665 2.43789 8.93314C2.79934 9.60963 3.32217 10.1864 3.96001 10.6124C3.22029 10.5889 2.49688 10.389 1.85001 10.0294V10.0894C1.84994 11.1651 2.22204 12.2078 2.90319 13.0404C3.58434 13.873 4.53258 14.4443 5.58701 14.6574C4.9008 14.8431 4.18135 14.8705 3.48301 14.7374C3.78051 15.663 4.36001 16.4724 5.14038 17.0523C5.92075 17.6322 6.86293 17.9536 7.83501 17.9714C6.18484 19.2668 4.1469 19.9695 2.04901 19.9664C1.67739 19.9665 1.30609 19.9448 0.937012 19.9014C3.06649 21.2706 5.54535 21.9972 8.07701 21.9944C16.647 21.9944 21.332 14.8964 21.332 8.74041C21.332 8.54041 21.327 8.33841 21.318 8.13841C22.2293 7.47938 23.0159 6.6633 23.641 5.72841L23.643 5.72541Z" fill="#ADADAD"/>
</svg>
