<svg width="280" height="168" viewBox="0 0 280 168" fill="none" xmlns="http://www.w3.org/2000/svg">
<rect width="280" height="168" rx="16" fill="#191F71"/>
<path fill-rule="evenodd" clip-rule="evenodd" d="M25.0654 25.257C25.0956 25.4059 25.6027 25.637 26.6636 25.9849C29.8902 27.0429 32.3796 28.5277 34.5551 30.6914C35.9424 32.0711 36.7039 33.0829 37.5587 34.6828C37.8319 35.1943 38.0571 35.579 38.0591 35.5377C38.061 35.4965 37.6425 33.4383 37.1289 30.964C36.5503 28.1761 36.0991 26.3103 35.9424 26.0572C35.8034 25.8327 35.4912 25.5294 35.2486 25.3832C34.8324 25.1324 34.5336 25.1153 29.9145 25.0782C25.4342 25.0421 25.0251 25.0572 25.0654 25.257ZM64.8985 25.5677C61.3652 26.3427 59.1915 28.2321 58.6491 31C58.2581 32.9949 59.0346 34.7508 60.9221 36.1404C61.3404 36.4483 62.4634 37.1031 63.4178 37.5956C65.4448 38.6414 66.0944 39.2326 66.0936 40.0305C66.093 40.7331 65.6993 41.2956 64.9469 41.6689C64.3504 41.9649 64.1524 41.989 62.3743 41.9818C60.5838 41.9743 60.3638 41.9451 59.2523 41.5662C58.5947 41.342 57.8311 41.0602 57.5554 40.94C56.9568 40.679 57.0311 40.5244 56.6682 42.7867C56.516 43.7366 56.36 44.6675 56.3219 44.8554C56.2382 45.2672 56.4492 45.3844 57.9572 45.7633C61.3324 46.6114 65.2093 46.4145 67.7184 45.2676C69.4456 44.4781 70.8145 43.1072 71.4243 41.5565C71.6653 40.9438 71.7257 40.5199 71.7323 39.399C71.7397 38.1225 71.7086 37.9422 71.3662 37.2734C70.6437 35.8621 69.5164 34.9488 66.7792 33.5566C64.8284 32.5645 64.2343 32.0424 64.2343 31.3202C64.2343 30.6912 64.5026 30.3077 65.2062 29.9316C65.7093 29.6626 65.945 29.6347 67.6884 29.6375C69.6155 29.6406 70.2073 29.7559 71.6851 30.4155C71.8651 30.4959 71.9475 30.1976 72.2541 28.3559C72.4514 27.1715 72.5654 26.1551 72.5077 26.0974C72.4499 26.0396 71.895 25.864 71.2744 25.7071C69.6434 25.2945 66.4616 25.225 64.8985 25.5677ZM42.7246 25.8814C42.6619 26.0459 41.5306 28.9901 40.2108 32.4243C38.8909 35.8585 37.7464 38.8411 37.6673 39.0522C37.5883 39.2631 37.4938 39.4061 37.4573 39.3695C37.4207 39.333 37.2732 38.6956 37.1293 37.9529C36.619 35.3209 34.906 32.613 32.4164 30.5026C31.4576 29.69 29.5448 28.3491 29.4596 28.4302C29.4409 28.448 30.5021 32.3846 31.8177 37.1784C33.1334 41.9722 34.2099 45.9276 34.2099 45.968C34.2099 46.0085 35.5101 46.0408 37.0994 46.0399L39.9889 46.0381L44.2401 35.94C46.5783 30.386 48.5113 25.7835 48.5356 25.7122C48.5635 25.6305 47.518 25.5825 45.7093 25.5825C42.8546 25.5825 42.838 25.5842 42.7246 25.8814ZM50.7711 25.8814C50.7305 26.0459 49.9764 30.5146 49.0955 35.812C48.2147 41.1095 47.4631 45.5782 47.4255 45.7427L47.3571 46.0416H50.0805C52.7964 46.0416 52.8041 46.0408 52.8712 45.7427C52.9082 45.5782 53.6565 41.1394 54.5341 35.8785C55.4119 30.6176 56.1647 26.1487 56.2071 25.9478L56.2843 25.5825H53.5647C50.8548 25.5825 50.8448 25.5836 50.7711 25.8814ZM81.5933 25.7216C80.7069 25.8704 80.1152 26.3164 79.6625 27.1767C79.2649 27.9326 71.5411 45.7913 71.5411 45.9548C71.5411 46.0055 72.8091 46.0307 74.3589 46.011L77.1768 45.9752L77.7276 44.5138L78.2784 43.0524L81.8081 43.0171L85.3378 42.9818L85.4941 43.7478C85.58 44.1691 85.7236 44.8426 85.8133 45.2445L85.9763 45.9752L88.4568 46.0113C90.4479 46.0403 90.9374 46.0126 90.9374 45.8711C90.9374 45.6778 86.7219 26.0174 86.6228 25.7486C86.5522 25.557 82.6973 25.5363 81.5933 25.7216ZM83.6278 35.0149C84.0024 36.8051 84.3396 38.3745 84.3772 38.5023C84.4404 38.7174 84.2745 38.7348 82.1671 38.7348C80.9139 38.7348 79.9085 38.6846 79.9329 38.6232C79.9572 38.5618 80.6022 36.8806 81.3662 34.8871C82.3546 32.308 82.783 31.3344 82.851 31.5114C82.9037 31.6482 83.2533 33.2248 83.6278 35.0149Z" fill="white"/>
<g clip-path="url(#clip0_304_274)">
<path d="M44 132C44 130.9 44.9 130 46 130V126C46 124.9 45.1 124 44 124H28C26.9 124 26.01 124.9 26.01 126V130C27.11 130 28 130.9 28 132C28 133.1 27.11 134 26 134V138C26 139.1 26.9 140 28 140H44C45.1 140 46 139.1 46 138V134C44.9 134 44 133.1 44 132ZM39.58 136.8L36 134.5L32.42 136.8L33.5 132.68L30.21 129.99L34.45 129.74L36 125.8L37.54 129.75L41.78 130L38.49 132.69L39.58 136.8Z" fill="white"/>
</g>
<path d="M63.038 136.314V128.362L63.556 128.754L61.624 129.776L61.218 128.46L63.836 127.06H64.564V136.314H63.038ZM61.484 137V135.544H66.16V137H61.484ZM71.242 137.14C70.4953 137.14 69.8513 136.935 69.31 136.524C68.778 136.113 68.3673 135.535 68.078 134.788C67.7887 134.032 67.644 133.136 67.644 132.1C67.644 131.064 67.7887 130.173 68.078 129.426C68.3673 128.67 68.778 128.087 69.31 127.676C69.8513 127.265 70.4953 127.06 71.242 127.06C71.9887 127.06 72.6327 127.265 73.174 127.676C73.7153 128.087 74.1307 128.67 74.42 129.426C74.7093 130.173 74.854 131.064 74.854 132.1C74.854 133.136 74.7093 134.032 74.42 134.788C74.1307 135.535 73.7153 136.113 73.174 136.524C72.6327 136.935 71.9887 137.14 71.242 137.14ZM71.242 135.768C71.9233 135.768 72.4507 135.451 72.824 134.816C73.1973 134.172 73.384 133.267 73.384 132.1C73.384 130.933 73.1973 130.033 72.824 129.398C72.4507 128.754 71.9233 128.432 71.242 128.432C70.5607 128.432 70.0333 128.754 69.66 129.398C69.2867 130.033 69.1 130.933 69.1 132.1C69.1 133.267 69.2867 134.172 69.66 134.816C70.0333 135.451 70.5607 135.768 71.242 135.768ZM78.6959 137L78.6399 136.86L81.5519 130.672L81.5939 131.834C81.4259 132.114 81.2392 132.361 81.0339 132.576C80.8379 132.791 80.6186 132.977 80.3759 133.136C80.1426 133.285 79.8999 133.402 79.6479 133.486C79.3959 133.561 79.1392 133.598 78.8779 133.598C78.3459 133.598 77.8559 133.458 77.4079 133.178C76.9599 132.898 76.6006 132.525 76.3299 132.058C76.0592 131.591 75.9239 131.083 75.9239 130.532C75.9239 129.869 76.0732 129.277 76.3719 128.754C76.6706 128.222 77.0766 127.802 77.5899 127.494C78.1126 127.186 78.6959 127.032 79.3399 127.032C79.8066 127.032 80.2452 127.116 80.6559 127.284C81.0666 127.452 81.4259 127.69 81.7339 127.998C82.0419 128.297 82.2846 128.647 82.4619 129.048C82.6392 129.44 82.7279 129.86 82.7279 130.308C82.7279 130.541 82.7046 130.793 82.6579 131.064C82.6112 131.325 82.5319 131.624 82.4199 131.96C82.3172 132.287 82.1772 132.665 81.9999 133.094C81.8226 133.514 81.6032 134.004 81.3419 134.564L80.1799 137H78.6959ZM79.1999 132.198C79.5639 132.198 79.8906 132.119 80.1799 131.96C80.4692 131.792 80.6932 131.573 80.8519 131.302C81.0199 131.022 81.1039 130.709 81.1039 130.364C81.1039 130 81.0246 129.673 80.8659 129.384C80.7072 129.085 80.4832 128.852 80.1939 128.684C79.9139 128.516 79.5919 128.432 79.2279 128.432C78.8919 128.432 78.5932 128.516 78.3319 128.684C78.0706 128.843 77.8606 129.067 77.7019 129.356C77.5526 129.636 77.4779 129.967 77.4779 130.35C77.4779 130.677 77.5526 130.98 77.7019 131.26C77.8606 131.54 78.0706 131.769 78.3319 131.946C78.5932 132.114 78.8826 132.198 79.1999 132.198ZM88.5107 137V127.2H89.8687L95.8607 135.222L95.6367 135.348C95.5993 135.115 95.5667 134.863 95.5387 134.592C95.5107 134.312 95.4827 134.018 95.4547 133.71C95.436 133.393 95.4173 133.061 95.3987 132.716C95.3893 132.361 95.38 131.993 95.3707 131.61C95.3613 131.227 95.3567 130.831 95.3567 130.42V127.2H96.8687V137H95.4827L89.5887 129.272L89.7427 129.076C89.7893 129.645 89.8267 130.131 89.8547 130.532C89.892 130.924 89.92 131.26 89.9387 131.54C89.9667 131.811 89.9853 132.035 89.9947 132.212C90.004 132.38 90.0087 132.52 90.0087 132.632C90.018 132.744 90.0227 132.842 90.0227 132.926V137H88.5107ZM101.824 137.14C101.302 137.14 100.844 137.019 100.452 136.776C100.07 136.533 99.7709 136.193 99.5562 135.754C99.3509 135.315 99.2482 134.793 99.2482 134.186V129.65H100.69V133.794C100.69 134.223 100.756 134.597 100.886 134.914C101.026 135.222 101.222 135.46 101.474 135.628C101.736 135.796 102.048 135.88 102.412 135.88C102.683 135.88 102.93 135.838 103.154 135.754C103.378 135.661 103.57 135.535 103.728 135.376C103.896 135.217 104.027 135.026 104.12 134.802C104.214 134.578 104.26 134.335 104.26 134.074V129.65H105.702V137H104.26V135.46L104.512 135.292C104.4 135.637 104.209 135.95 103.938 136.23C103.677 136.51 103.364 136.734 103 136.902C102.636 137.061 102.244 137.14 101.824 137.14ZM101.502 128.516L101.026 127.802L103.028 126.052L103.938 127.2L101.502 128.516ZM107.697 137V129.65H109.153V131.218L108.887 131.386C108.961 131.143 109.078 130.91 109.237 130.686C109.405 130.462 109.605 130.266 109.839 130.098C110.081 129.921 110.338 129.781 110.609 129.678C110.889 129.575 111.173 129.524 111.463 129.524C111.883 129.524 112.251 129.594 112.569 129.734C112.886 129.874 113.147 130.084 113.353 130.364C113.558 130.644 113.707 130.994 113.801 131.414L113.577 131.358L113.675 131.12C113.777 130.905 113.917 130.705 114.095 130.518C114.281 130.322 114.491 130.149 114.725 130C114.958 129.851 115.205 129.734 115.467 129.65C115.728 129.566 115.985 129.524 116.237 129.524C116.787 129.524 117.24 129.636 117.595 129.86C117.959 130.084 118.229 130.425 118.407 130.882C118.593 131.339 118.687 131.909 118.687 132.59V137H117.231V132.674C117.231 132.254 117.175 131.913 117.063 131.652C116.96 131.381 116.801 131.181 116.587 131.05C116.372 130.919 116.097 130.854 115.761 130.854C115.499 130.854 115.252 130.901 115.019 130.994C114.795 131.078 114.599 131.199 114.431 131.358C114.263 131.517 114.132 131.703 114.039 131.918C113.945 132.123 113.899 132.352 113.899 132.604V137H112.443V132.646C112.443 132.263 112.387 131.941 112.275 131.68C112.163 131.409 111.999 131.204 111.785 131.064C111.57 130.924 111.309 130.854 111.001 130.854C110.739 130.854 110.497 130.901 110.273 130.994C110.049 131.078 109.853 131.199 109.685 131.358C109.517 131.507 109.386 131.689 109.293 131.904C109.199 132.109 109.153 132.333 109.153 132.576V137H107.697ZM124.047 137.14C123.291 137.14 122.619 136.981 122.031 136.664C121.453 136.337 120.995 135.894 120.659 135.334C120.333 134.774 120.169 134.13 120.169 133.402C120.169 132.823 120.263 132.296 120.449 131.82C120.636 131.344 120.893 130.933 121.219 130.588C121.555 130.233 121.952 129.963 122.409 129.776C122.876 129.58 123.38 129.482 123.921 129.482C124.397 129.482 124.841 129.575 125.251 129.762C125.662 129.939 126.017 130.187 126.315 130.504C126.623 130.821 126.857 131.199 127.015 131.638C127.183 132.067 127.263 132.539 127.253 133.052L127.239 133.668H121.233L120.911 132.52H125.993L125.783 132.758V132.422C125.755 132.114 125.653 131.839 125.475 131.596C125.298 131.353 125.074 131.162 124.803 131.022C124.533 130.882 124.239 130.812 123.921 130.812C123.417 130.812 122.993 130.91 122.647 131.106C122.302 131.293 122.041 131.573 121.863 131.946C121.686 132.31 121.597 132.763 121.597 133.304C121.597 133.817 121.705 134.265 121.919 134.648C122.134 135.021 122.437 135.311 122.829 135.516C123.221 135.721 123.674 135.824 124.187 135.824C124.551 135.824 124.887 135.763 125.195 135.642C125.513 135.521 125.853 135.301 126.217 134.984L126.945 136.006C126.721 136.23 126.446 136.426 126.119 136.594C125.802 136.762 125.461 136.897 125.097 137C124.743 137.093 124.393 137.14 124.047 137.14ZM128.821 137V129.65H130.277V131.96L130.137 131.4C130.239 131.045 130.412 130.723 130.655 130.434C130.907 130.145 131.191 129.916 131.508 129.748C131.835 129.58 132.171 129.496 132.517 129.496C132.675 129.496 132.825 129.51 132.965 129.538C133.114 129.566 133.231 129.599 133.315 129.636L132.937 131.204C132.825 131.157 132.699 131.12 132.559 131.092C132.428 131.055 132.297 131.036 132.167 131.036C131.915 131.036 131.672 131.087 131.439 131.19C131.215 131.283 131.014 131.419 130.837 131.596C130.669 131.764 130.533 131.965 130.431 132.198C130.328 132.422 130.277 132.669 130.277 132.94V137H128.821ZM137.457 137.14C136.738 137.14 136.094 136.977 135.525 136.65C134.965 136.314 134.521 135.861 134.195 135.292C133.868 134.713 133.705 134.055 133.705 133.318C133.705 132.581 133.868 131.927 134.195 131.358C134.521 130.779 134.965 130.327 135.525 130C136.094 129.664 136.738 129.496 137.457 129.496C138.166 129.496 138.801 129.664 139.361 130C139.93 130.327 140.378 130.779 140.705 131.358C141.031 131.927 141.195 132.581 141.195 133.318C141.195 134.055 141.031 134.713 140.705 135.292C140.378 135.861 139.93 136.314 139.361 136.65C138.801 136.977 138.166 137.14 137.457 137.14ZM137.457 135.824C137.895 135.824 138.287 135.717 138.633 135.502C138.978 135.278 139.249 134.979 139.445 134.606C139.641 134.223 139.734 133.794 139.725 133.318C139.734 132.833 139.641 132.403 139.445 132.03C139.249 131.647 138.978 131.349 138.633 131.134C138.287 130.919 137.895 130.812 137.457 130.812C137.018 130.812 136.621 130.924 136.267 131.148C135.921 131.363 135.651 131.661 135.455 132.044C135.259 132.417 135.165 132.842 135.175 133.318C135.165 133.794 135.259 134.223 135.455 134.606C135.651 134.979 135.921 135.278 136.267 135.502C136.621 135.717 137.018 135.824 137.457 135.824ZM145.216 137.14C144.6 137.14 144.044 137.033 143.55 136.818C143.055 136.603 142.644 136.286 142.318 135.866L143.298 135.026C143.578 135.353 143.881 135.591 144.208 135.74C144.544 135.88 144.922 135.95 145.342 135.95C145.51 135.95 145.664 135.931 145.804 135.894C145.953 135.847 146.079 135.782 146.182 135.698C146.294 135.614 146.378 135.516 146.434 135.404C146.49 135.283 146.518 135.152 146.518 135.012C146.518 134.769 146.429 134.573 146.252 134.424C146.158 134.359 146.009 134.289 145.804 134.214C145.608 134.13 145.351 134.046 145.034 133.962C144.492 133.822 144.049 133.663 143.704 133.486C143.358 133.309 143.092 133.108 142.906 132.884C142.766 132.707 142.663 132.515 142.598 132.31C142.532 132.095 142.5 131.862 142.5 131.61C142.5 131.302 142.565 131.022 142.696 130.77C142.836 130.509 143.022 130.285 143.256 130.098C143.498 129.902 143.778 129.753 144.096 129.65C144.422 129.547 144.768 129.496 145.132 129.496C145.477 129.496 145.818 129.543 146.154 129.636C146.499 129.729 146.816 129.865 147.106 130.042C147.395 130.219 147.638 130.429 147.834 130.672L147.008 131.582C146.83 131.405 146.634 131.251 146.42 131.12C146.214 130.98 146.004 130.873 145.79 130.798C145.575 130.723 145.379 130.686 145.202 130.686C145.006 130.686 144.828 130.705 144.67 130.742C144.511 130.779 144.376 130.835 144.264 130.91C144.161 130.985 144.082 131.078 144.026 131.19C143.97 131.302 143.942 131.428 143.942 131.568C143.951 131.689 143.979 131.806 144.026 131.918C144.082 132.021 144.156 132.109 144.25 132.184C144.352 132.259 144.506 132.338 144.712 132.422C144.917 132.506 145.178 132.585 145.496 132.66C145.962 132.781 146.345 132.917 146.644 133.066C146.952 133.206 147.194 133.369 147.372 133.556C147.558 133.733 147.689 133.939 147.764 134.172C147.838 134.405 147.876 134.667 147.876 134.956C147.876 135.376 147.754 135.754 147.512 136.09C147.278 136.417 146.961 136.673 146.56 136.86C146.158 137.047 145.71 137.14 145.216 137.14Z" fill="white"/>
<defs>
<clipPath id="clip0_304_274">
<rect width="24" height="24" fill="white" transform="translate(24 120)"/>
</clipPath>
</defs>
</svg>
