<svg width="24" height="25" viewBox="0 0 24 25" fill="none" xmlns="http://www.w3.org/2000/svg">
<path fill-rule="evenodd" clip-rule="evenodd" d="M18.403 6.42148C17.5714 5.58437 16.5819 4.9206 15.4919 4.46863C14.4019 4.01666 13.233 3.78548 12.053 3.78848C7.105 3.78848 3.077 7.81548 3.075 12.7655C3.075 14.3475 3.488 15.8915 4.273 17.2535L3 21.9045L7.759 20.6555C9.07539 21.3721 10.5502 21.7478 12.049 21.7485H12.053C17 21.7485 21.028 17.7215 21.03 12.7715C21.0334 11.592 20.803 10.4235 20.3521 9.33354C19.9012 8.24361 19.2387 7.25385 18.403 6.42148ZM12.053 20.2335H12.05C10.7135 20.2336 9.40163 19.874 8.252 19.1925L7.98 19.0305L5.156 19.7715L5.909 17.0185L5.732 16.7365C4.98479 15.5469 4.58923 14.1703 4.591 12.7655C4.593 8.65148 7.94 5.30448 12.056 5.30448C13.0363 5.3023 14.0072 5.49456 14.9127 5.87013C15.8181 6.2457 16.6401 6.79712 17.331 7.49248C18.0256 8.18452 18.5762 9.00738 18.9509 9.91348C19.3256 10.8196 19.517 11.791 19.514 12.7715C19.512 16.8855 16.165 20.2335 12.053 20.2335ZM16.146 14.6445C15.921 14.5315 14.819 13.9895 14.613 13.9145C14.408 13.8395 14.259 13.8025 14.109 14.0265C13.959 14.2505 13.529 14.7555 13.398 14.9055C13.267 15.0555 13.136 15.0735 12.912 14.9615C12.688 14.8495 11.965 14.6125 11.108 13.8485C10.441 13.2535 9.991 12.5195 9.86 12.2945C9.729 12.0695 9.846 11.9485 9.959 11.8365C10.06 11.7365 10.183 11.5745 10.295 11.4435C10.407 11.3125 10.444 11.2195 10.519 11.0695C10.594 10.9195 10.557 10.7885 10.5 10.6765C10.444 10.5635 9.995 9.45948 9.808 9.01048C9.627 8.57548 9.442 8.63348 9.304 8.62748C9.16108 8.62163 9.01804 8.61897 8.875 8.61948C8.76126 8.62238 8.64934 8.64875 8.54626 8.69693C8.44318 8.74511 8.35117 8.81407 8.276 8.89948C8.07 9.12448 7.491 9.66648 7.491 10.7705C7.491 11.8745 8.295 12.9415 8.407 13.0915C8.519 13.2415 9.989 15.5065 12.239 16.4785C12.775 16.7095 13.193 16.8475 13.518 16.9515C14.055 17.1225 14.544 17.0975 14.931 17.0405C15.362 16.9765 16.258 16.4985 16.445 15.9745C16.632 15.4505 16.632 15.0015 16.576 14.9075C16.52 14.8135 16.369 14.7565 16.146 14.6445Z" fill="#ADADAD"/>
</svg>
