<svg width="16" height="25" viewBox="0 0 16 25" fill="none" xmlns="http://www.w3.org/2000/svg">
<path fill-rule="evenodd" clip-rule="evenodd" d="M7.2495 0.404796C6.91105 0.466342 6.44641 0.591638 6.20281 0.687146C4.65465 1.29383 3.52276 2.58689 3.10757 4.22306C2.96163 4.79822 2.96529 6.00816 3.11456 6.52163C3.17085 6.71514 3.73067 8.89995 4.35869 11.3768L5.50052 15.8801L5.25017 16.6185C4.99765 17.3633 4.69189 18.1527 4.35518 18.9292L4.17209 19.3514L3.63507 19.3759C3.21269 19.3952 3.0479 19.4232 2.86345 19.5072C2.54493 19.6523 2.2927 19.9055 2.13081 20.2427C2.00932 20.4958 1.99567 20.5722 1.99567 20.9999C1.99562 21.4632 1.99266 21.4764 1.88285 21.5039C1.64417 21.5639 1.30544 21.8926 1.14346 22.2216L0.987061 22.5391V23.3298V24.1204L1.14027 24.2573L1.29347 24.3942H8.00006H14.7066L14.8599 24.2573L15.0131 24.1204V23.3298V22.5391L14.8567 22.2216C14.6947 21.8926 14.3559 21.5639 14.1173 21.5039C14.0075 21.4764 14.0045 21.4632 14.0045 20.9999C14.0045 20.5741 13.9904 20.4946 13.8708 20.2427C13.7036 19.8906 13.399 19.606 13.049 19.475C12.8392 19.3965 12.6767 19.3749 12.297 19.3749H11.8126L11.6686 19.0817C11.1239 17.9733 10.737 16.3645 10.5825 14.5666C10.4888 13.4751 10.4831 13.5072 10.8998 12.7472C11.8888 10.9433 12.6765 8.79014 12.9498 7.14366C13.064 6.45624 13.0278 4.7454 12.8876 4.1996C12.6667 3.3398 12.2643 2.5982 11.685 1.98312C11.2292 1.49934 10.8874 1.23191 10.3785 0.961239C9.57149 0.531922 9.1258 0.420089 8.14079 0.399589C7.71508 0.390724 7.31401 0.393116 7.2495 0.404796ZM8.7113 1.47457C10.12 1.74505 11.2908 2.76276 11.759 4.1238C11.8072 4.26387 11.8467 4.38316 11.8467 4.38888C11.8467 4.39461 11.7849 4.42491 11.7093 4.4562C11.6338 4.48749 11.5185 4.59031 11.4532 4.6847C11.3413 4.84621 11.1152 5.474 10.931 6.13463C10.886 6.2959 10.8354 6.42781 10.8186 6.42781C10.8017 6.42781 10.7536 6.36979 10.7116 6.29881C10.5636 6.04869 10.1795 5.70794 9.89531 5.57467C8.90706 5.11125 7.78873 5.4519 7.26015 6.37743C7.09269 6.67071 7.14279 6.7294 6.7365 5.76399C6.28706 4.69586 5.99894 4.36609 5.51385 4.36473C5.22291 4.36393 5.0159 4.50029 4.89037 4.77551C4.80574 4.96109 4.78975 5.0808 4.792 5.51307C4.79477 6.04376 4.82868 6.32241 5.02284 7.41057C5.08472 7.75761 5.12726 8.04967 5.11737 8.05961C5.06881 8.10812 4.63795 7.47662 4.43614 7.06109C4.13179 6.43457 4.04407 6.0652 4.04079 5.3958C4.03342 3.89957 4.81874 2.59693 6.17058 1.86298C6.46386 1.70373 7.12064 1.48105 7.41369 1.4415C7.74473 1.39684 8.39246 1.41335 8.7113 1.47457ZM11.9621 6.62718C11.8242 7.81512 11.2344 9.6484 10.4641 11.283C10.3303 11.5668 10.0034 12.1876 9.73755 12.6626C8.57822 14.734 8.00006 16.4088 8.00006 17.6959C8.00006 18.0972 8.00606 18.1216 8.13718 18.2527C8.32815 18.4436 8.63831 18.4472 8.84584 18.2608C8.97977 18.1405 8.99258 18.1001 9.03536 17.6627C9.06059 17.4047 9.11445 17.0267 9.15502 16.8228C9.22956 16.4485 9.52772 15.4878 9.58955 15.4228C9.60789 15.4036 9.64781 15.5846 9.67821 15.8252C9.81786 16.9308 10.1858 18.3864 10.5132 19.1286L10.6218 19.3749H7.97403C6.51771 19.3749 5.32621 19.3674 5.32621 19.3584C5.32621 19.3493 5.42326 19.1118 5.5419 18.8306C6.29569 17.0439 6.75883 15.5374 6.94788 14.2571C7.09104 13.2878 6.99 12.2175 6.52095 9.73495C6.19272 7.99755 5.98294 6.85075 5.98294 6.79394C5.98294 6.76552 6.0989 6.97858 6.24062 7.26736C6.56092 7.91992 6.78167 8.24617 7.1539 8.6169C7.9508 9.41066 9.13401 9.60712 10.1579 9.11569C10.5013 8.9509 11.0719 8.37649 11.3246 7.94117C11.525 7.59601 11.8754 6.76495 11.9249 6.51713C11.9696 6.29384 11.9927 6.36252 11.9621 6.62718ZM9.5197 6.57042C10.0523 6.93115 10.1129 7.66201 9.64528 8.08448C9.41805 8.2898 9.17604 8.37011 8.88773 8.33596C8.13671 8.24702 7.78146 7.33115 8.2719 6.7483C8.55425 6.41276 9.15953 6.32644 9.5197 6.57042ZM5.23689 9.54304C5.44447 9.67359 5.45427 9.6901 5.50226 9.98821C5.52965 10.1585 5.62676 10.7306 5.71804 11.2595C5.86633 12.1188 6.00691 13.3152 5.96451 13.3576C5.95574 13.3664 5.73381 12.5127 5.47135 11.4605C5.20893 10.4082 4.98227 9.50786 4.96763 9.45968C4.9369 9.35822 4.94882 9.36192 5.23689 9.54304ZM12.8356 20.5836C12.9592 20.7218 12.9725 20.7687 12.9725 21.0644V21.392H8.00006H3.02763V21.0672C3.02763 20.7881 3.04433 20.7226 3.1465 20.6012C3.21189 20.5235 3.31214 20.4507 3.36932 20.4394C3.42651 20.4281 5.54903 20.4214 8.086 20.4246L12.6988 20.4304L12.8356 20.5836ZM13.6967 22.4782C13.8778 22.5607 13.9672 22.7373 13.9935 23.0648L14.0174 23.3622H8.00006H1.98277L2.00688 23.0617C2.03221 22.7466 2.11149 22.5845 2.28838 22.4862C2.43596 22.4042 13.5173 22.3964 13.6967 22.4782Z" fill="#0F2B94"/>
</svg>
